<svg version="1.1" id="Layer_1" xmlns="http://www.w3.org/2000/svg" xmlns:xlink="http://www.w3.org/1999/xlink" x="0px" y="0px"
	 width="100%" viewBox="0 0 512 396" enable-background="new 0 0 512 396" xml:space="preserve">
<path fill="#2C175A" opacity="1.000000" stroke="none" 
	d="
M321.000000,397.000000 
	C214.029297,397.000000 107.558601,397.000000 1.043953,397.000000 
	C1.043953,265.065643 1.043953,133.131241 1.043953,1.098430 
	C171.554047,1.098430 342.108185,1.098430 512.831177,1.098430 
	C512.831177,132.999832 512.831177,264.999908 512.831177,397.000000 
	C449.131226,397.000000 385.315613,397.000000 321.000000,397.000000 
M401.308868,199.081589 
	C401.867035,198.876907 402.425201,198.672241 403.769440,198.300781 
	C404.829407,198.144547 405.889343,197.988297 407.391144,198.154129 
	C408.293121,197.855865 409.195129,197.557602 410.727081,197.144638 
	C411.149628,197.084763 411.572205,197.024872 412.561798,197.303955 
	C414.067017,196.910706 415.572205,196.517456 417.704010,196.001785 
	C418.125610,195.942139 418.547211,195.882477 419.471924,196.174576 
	C420.671844,195.842438 421.871796,195.510300 423.878784,195.101868 
	C430.805817,194.495514 428.761780,200.432678 430.232483,204.433975 
	C430.866516,205.353943 431.500519,206.273895 432.456024,207.757843 
	C432.576355,208.173706 432.696686,208.589584 432.415375,209.393723 
	C432.263275,209.928040 432.111176,210.462341 431.684753,211.457489 
	C432.225067,212.363144 432.765350,213.268784 433.602600,214.715057 
	C433.625916,215.120804 433.649261,215.526550 433.152710,216.180328 
	C433.327301,217.453369 433.501892,218.726410 433.852081,220.672852 
	C434.307831,221.442322 434.763611,222.211792 435.322296,223.551529 
	C435.406921,223.928314 435.491516,224.305099 435.274750,225.476532 
	C435.236420,226.468521 434.932037,227.542465 435.207733,228.437744 
	C436.184540,231.609680 437.289703,235.080383 441.533936,234.632935 
	C445.317932,234.234024 446.655212,230.893402 445.388214,226.171066 
	C444.362854,222.349304 443.313293,218.533463 442.343018,214.697647 
	C441.108154,209.815918 439.942444,204.916702 438.628815,199.454391 
	C438.551361,199.073792 438.473938,198.693192 438.707062,197.524048 
	C439.926727,195.663101 441.131042,193.791840 442.370972,191.944504 
	C443.344574,190.493988 444.362244,189.073044 445.495270,187.053970 
	C445.511749,186.455597 445.528229,185.857239 445.719116,184.520676 
	C444.049133,183.799942 442.052917,182.105850 440.768677,182.536209 
	C436.459045,183.980469 434.761505,182.460770 433.799622,178.412201 
	C432.892029,174.592438 431.577820,170.844833 430.144928,167.181870 
	C428.933624,164.085266 427.296295,161.155273 425.680542,157.717697 
	C425.680542,157.717697 425.526154,157.279205 425.703613,156.540405 
	C424.236298,153.451614 423.031799,150.192200 421.185944,147.349182 
	C420.319855,146.015259 418.217865,145.483780 416.091278,144.520355 
	C415.505737,144.562256 414.920197,144.604156 413.539154,144.431763 
	C407.251678,144.386856 403.029297,146.594025 401.325928,153.381882 
	C398.585693,164.301468 394.936798,174.990860 392.083405,185.885315 
	C391.047791,189.839310 388.878357,191.972443 385.227905,192.853546 
	C381.686829,193.708282 378.075928,194.270844 374.501678,194.991516 
	C371.481110,195.600510 368.705994,197.011414 369.298096,200.464401 
	C369.899261,203.970200 372.552765,205.752274 376.333557,205.069199 
	C377.471710,204.863571 378.571655,204.315018 379.706604,204.255219 
	C381.258545,204.173462 382.827179,204.408691 384.388672,204.508041 
	C384.195557,205.925690 384.214264,207.412979 383.774780,208.749619 
	C381.022186,217.121033 378.099762,225.436874 375.378815,233.818268 
	C374.245850,237.308105 373.725067,241.256546 378.113678,242.653229 
	C382.382782,244.011887 384.493500,240.731766 385.607635,237.166565 
	C389.553528,224.539948 393.375305,211.874542 397.552002,199.008270 
	C397.552002,199.008270 397.856445,198.787872 398.622162,198.984894 
	C399.410339,198.927933 400.198517,198.870972 401.308868,199.081589 
M176.487503,200.676819 
	C175.542801,198.090408 174.598099,195.503983 173.496307,192.435562 
	C173.451401,192.100906 173.406509,191.766235 173.526550,190.642151 
	C171.532806,185.101364 169.539047,179.560593 167.344025,173.482391 
	C167.074249,172.766815 166.804474,172.051224 166.686142,170.650330 
	C166.186737,166.601654 166.539856,161.897812 161.078064,160.901413 
	C156.340714,160.037216 153.297028,162.474380 150.983505,169.021683 
	C149.118759,174.298935 147.757126,179.752274 146.104889,185.106720 
	C143.950241,192.089325 141.729004,199.051392 139.257217,206.910019 
	C137.638260,204.627335 136.710526,203.319290 135.633881,201.374908 
	C135.530518,200.730179 135.427155,200.085449 135.484619,198.779846 
	C135.209625,198.188095 134.934616,197.596359 134.523193,196.486847 
	C134.460617,196.135544 134.398026,195.784241 134.499161,194.774292 
	C134.225708,194.185486 133.952255,193.596664 133.498108,192.392166 
	C133.430069,191.969955 133.362030,191.547745 133.648895,190.802261 
	C133.338272,190.209488 133.027649,189.616714 132.584793,188.491623 
	C132.525696,188.130859 132.466599,187.770081 132.553558,186.751022 
	C132.277771,186.167709 132.001999,185.584381 131.569870,184.476227 
	C131.524841,184.114136 131.479797,183.752029 131.615845,182.813065 
	C131.307373,182.113998 130.998886,181.414948 130.550308,180.125427 
	C130.476593,179.727692 130.402893,179.329956 130.707687,178.589844 
	C129.727188,175.392075 128.746704,172.194290 127.606712,168.461731 
	C127.555649,168.093414 127.504585,167.725113 127.759583,166.856705 
	C127.164177,163.810745 126.861366,160.668015 125.894440,157.744949 
	C124.841026,154.560410 119.198143,153.018066 115.890022,154.827057 
	C112.614288,156.618332 112.555061,159.291229 113.864731,162.512466 
	C116.471924,168.925095 119.445671,175.274506 121.196098,181.931854 
	C124.906517,196.043549 127.741600,210.384720 131.404800,224.510117 
	C132.076965,227.102036 134.601974,230.462387 136.918152,231.092712 
	C140.593063,232.092758 142.713120,228.582733 143.817017,225.259796 
	C146.907761,215.956085 149.903381,206.620453 152.884689,197.280869 
	C154.708740,191.566620 156.437302,185.821884 158.208740,180.090851 
	C160.251129,181.952332 161.118622,183.685791 161.738800,185.503601 
	C165.924911,197.773666 169.906250,210.117279 174.354965,222.290527 
	C175.122787,224.391541 178.087402,227.411041 179.534744,227.155869 
	C181.959061,226.728470 184.880478,224.457169 186.019272,222.176285 
	C192.312973,209.570648 193.568222,195.740021 194.658478,181.965576 
	C195.007721,177.553009 194.475082,173.070648 194.351242,167.794678 
	C194.437012,165.854843 194.522797,163.915024 195.161163,161.585068 
	C197.209366,157.221878 197.592712,153.138397 193.145584,149.852631 
	C193.145584,149.852631 193.140076,149.807083 193.048874,149.317688 
	C192.375229,149.116013 191.701599,148.914337 190.336517,148.683044 
	C189.875595,148.699295 189.414688,148.715530 188.533096,148.469788 
	C187.974808,149.307083 187.416519,150.144394 186.780930,151.918900 
	C186.682678,160.542542 186.584412,169.166168 185.929245,178.209442 
	C185.306641,180.583389 184.435974,182.924042 184.111969,185.338058 
	C183.388412,190.728821 183.046204,196.171127 182.304398,201.558807 
	C182.101440,203.032837 181.032883,204.387680 180.361557,205.797226 
	C179.129181,204.853149 177.896790,203.909058 176.511017,202.465286 
	C176.440735,202.124008 176.370453,201.782745 176.487503,200.676819 
M83.479523,175.725922 
	C88.335556,169.833023 93.191589,163.940140 98.594635,157.654114 
	C101.785538,151.391525 105.319870,145.267380 107.937859,138.773819 
	C108.635582,137.043182 106.526649,134.180984 105.706306,131.838318 
	C103.925301,133.232758 101.417053,134.253540 100.478218,136.080704 
	C92.885010,150.858566 81.723389,162.904922 70.819275,175.116318 
	C69.262589,176.859650 66.026581,177.103439 63.557549,177.134109 
	C63.461823,173.885391 63.366100,170.636673 63.614723,166.690277 
	C63.321163,164.804413 63.027599,162.918564 62.609310,160.369186 
	C62.535305,159.698288 62.461300,159.027405 62.745708,157.726929 
	C62.350235,156.167404 61.954762,154.607864 61.474506,152.385803 
	C61.411591,151.944992 61.348679,151.504196 61.710232,150.657257 
	C61.210072,148.441971 61.351017,145.666229 60.036644,144.162720 
	C58.608131,142.528625 55.715668,141.091797 53.659317,141.323608 
	C49.856949,141.752228 49.619476,145.112427 50.174252,148.326279 
	C51.585812,156.503616 53.531918,164.631042 54.281467,172.867874 
	C54.972446,180.461075 56.926159,188.375214 52.206532,195.667236 
	C51.481934,196.786774 52.137566,198.859909 52.296421,200.478119 
	C52.600739,203.578094 53.288723,206.666748 53.303493,209.762558 
	C53.324890,214.245697 52.830467,218.728867 52.666416,223.216049 
	C52.508877,227.525192 55.208427,231.444748 57.990276,230.641998 
	C61.826653,229.534988 63.749096,226.853912 62.490582,222.080643 
	C62.544708,221.713104 62.598839,221.345581 63.396160,220.530319 
	C63.551586,217.408646 63.840954,214.286652 63.833286,211.165390 
	C63.819290,205.468063 64.467506,204.871780 69.726646,206.739853 
	C73.010117,207.906189 76.181961,209.383331 79.448265,210.602097 
	C88.463844,213.966080 97.439972,217.454880 106.560158,220.510971 
	C110.816132,221.937088 114.849693,219.909042 115.494217,216.554077 
	C116.316055,212.276108 112.984299,211.315536 109.947388,210.275085 
	C97.531273,206.021317 85.118919,201.756332 72.689590,197.541458 
	C66.241249,195.354782 66.089752,194.439392 70.782288,189.436005 
	C74.594238,185.371536 78.099998,181.019913 82.092026,176.443039 
	C82.325500,176.207886 82.554703,175.968628 83.479523,175.725922 
M352.862701,225.719513 
	C355.604004,225.049576 358.765228,225.011490 360.975433,223.542465 
	C363.481476,221.876816 365.990723,219.218506 366.923523,216.459305 
	C367.887573,213.607697 365.676453,211.513947 362.441986,213.231491 
	C350.184387,219.740509 337.268280,218.172363 324.389069,216.417603 
	C319.442963,215.743683 318.474335,213.709045 320.538696,209.065842 
	C324.188599,200.856293 328.286621,192.843979 331.857117,184.601852 
	C334.046936,179.546906 337.305969,176.720413 342.911407,175.924011 
	C346.043549,175.478989 349.192413,173.864182 351.867859,172.078522 
	C353.062347,171.281265 353.110168,168.765884 353.678375,167.030273 
	C352.021271,166.808334 350.344666,166.317352 348.712280,166.435822 
	C346.871643,166.569382 345.070770,167.251495 342.104156,167.975189 
	C343.029938,165.039627 343.472717,163.195663 344.185272,161.462646 
	C345.956573,157.154739 348.029388,152.963852 349.651794,148.603424 
	C351.807556,142.809586 349.708588,139.519165 343.524719,140.231201 
	C332.469818,141.504120 321.480865,143.459473 310.546570,145.558029 
	C308.796539,145.893906 307.473816,148.456223 305.953552,149.989273 
	C307.882568,150.767212 309.889069,152.356903 311.727051,152.181381 
	C319.340759,151.454330 326.893951,150.118271 334.488068,149.152847 
	C340.500946,148.388474 341.233276,149.717331 339.130890,155.437149 
	C335.218658,166.080872 329.200897,173.494049 316.552185,173.301300 
	C313.277130,173.251404 307.989441,172.879059 308.334961,178.787338 
	C308.537994,182.259521 312.024475,182.929260 318.306519,181.424850 
	C319.781952,181.071518 321.443909,181.497116 323.020050,181.564377 
	C322.849518,183.110901 323.055664,184.827850 322.445892,186.175659 
	C319.086426,193.601364 315.336792,200.853821 312.085754,208.324448 
	C308.049835,217.598663 309.843842,222.109299 319.785736,223.678497 
	C330.366974,225.348618 341.237549,225.185379 352.862701,225.719513 
M236.087540,144.746170 
	C222.160767,158.799973 212.262527,174.911499 209.428055,194.941818 
	C206.183273,217.871796 225.146729,229.178009 243.127151,226.095322 
	C265.059479,222.335114 285.165863,200.745026 287.709229,178.541977 
	C289.025085,167.055084 284.600159,158.151260 274.677216,153.280411 
	C267.711761,149.861267 259.501038,148.989517 251.860641,146.927505 
	C249.857376,146.386856 247.441147,146.168518 246.027023,144.897919 
	C242.835052,142.029953 239.900238,141.982849 236.087540,144.746170 
z"/>
<path fill="#A495B1" opacity="1.000000" stroke="none" 
	d="
M352.422241,225.771072 
	C341.237549,225.185379 330.366974,225.348618 319.785736,223.678497 
	C309.843842,222.109299 308.049835,217.598663 312.085754,208.324448 
	C315.336792,200.853821 319.086426,193.601364 322.445892,186.175659 
	C323.055664,184.827850 322.849518,183.110901 323.020050,181.564362 
	C321.443909,181.497116 319.781952,181.071518 318.306519,181.424850 
	C312.024475,182.929260 308.537994,182.259521 308.334961,178.787338 
	C307.989441,172.879059 313.277130,173.251404 316.552185,173.301300 
	C329.200897,173.494049 335.218658,166.080872 339.130890,155.437149 
	C341.233276,149.717331 340.500946,148.388474 334.488068,149.152847 
	C326.893951,150.118271 319.340759,151.454330 311.727051,152.181381 
	C309.889069,152.356903 307.882568,150.767212 305.953552,149.989273 
	C307.473816,148.456223 308.796539,145.893906 310.546570,145.558029 
	C321.480865,143.459473 332.469818,141.504120 343.524719,140.231201 
	C349.708588,139.519165 351.807556,142.809586 349.651794,148.603424 
	C348.029388,152.963852 345.956573,157.154739 344.185272,161.462646 
	C343.472717,163.195663 343.029938,165.039627 342.104156,167.975189 
	C345.070770,167.251495 346.871643,166.569382 348.712280,166.435822 
	C350.344666,166.317352 352.021271,166.808334 353.678375,167.030273 
	C353.110168,168.765884 353.062347,171.281265 351.867859,172.078522 
	C349.192413,173.864182 346.043549,175.478989 342.911407,175.924011 
	C337.305969,176.720413 334.046936,179.546906 331.857117,184.601852 
	C328.286621,192.843979 324.188599,200.856293 320.538696,209.065842 
	C318.474335,213.709045 319.442963,215.743683 324.389069,216.417603 
	C337.268280,218.172363 350.184387,219.740509 362.441986,213.231491 
	C365.676453,211.513947 367.887573,213.607697 366.923523,216.459305 
	C365.990723,219.218506 363.481476,221.876816 360.975433,223.542465 
	C358.765228,225.011490 355.604004,225.049576 352.422241,225.771072 
M346.329620,149.317963 
	C347.539001,143.744308 346.064117,142.174438 340.746338,143.070175 
	C337.993408,143.533859 335.160156,143.504532 332.392578,143.902267 
	C329.948761,144.253448 327.545715,144.888245 325.124664,145.397812 
	C325.226715,146.062775 325.328766,146.727737 325.430817,147.392685 
	C329.054565,147.081818 332.681885,146.806686 336.301056,146.449463 
	C339.574982,146.126312 342.774078,145.852829 343.640320,150.720688 
	C342.002838,154.756241 340.365326,158.791779 338.212311,163.292221 
	C335.759491,167.740677 333.801117,172.664291 327.174408,173.905457 
	C321.877869,175.022964 316.164673,174.687271 311.522095,178.587112 
	C313.529999,179.468521 315.384125,179.384628 317.213226,179.124573 
	C320.773743,178.618347 324.320160,178.013351 327.836700,178.190796 
	C327.657623,180.198471 327.478577,182.206146 327.274994,184.488525 
	C330.846405,181.007065 333.570129,177.220566 337.251434,175.084091 
	C340.874786,172.981216 345.469147,172.551453 349.637451,171.387573 
	C349.448761,170.774261 349.260071,170.160965 349.071381,169.547653 
	C347.877502,169.817490 346.693970,170.243073 345.487549,170.323029 
	C343.330017,170.466034 341.158661,170.400757 338.993103,170.422546 
	C339.323242,168.406952 339.637054,166.388428 339.995392,164.377869 
	C340.081146,163.896759 340.315369,163.442123 340.867432,162.478226 
	C342.628082,158.344910 344.388763,154.211594 346.329620,149.317963 
M315.959564,205.520447 
	C315.210785,207.190140 314.427887,208.845490 313.719391,210.532120 
	C311.198181,216.534348 312.221405,219.064606 318.526703,220.858978 
	C323.143097,222.172729 327.943542,223.694809 332.649384,223.654526 
	C341.391693,223.579681 350.149933,222.636459 358.842224,221.570801 
	C360.750885,221.336807 362.411469,219.078842 365.121521,217.054245 
	C362.901001,216.553772 362.549286,216.354858 362.283020,216.436020 
	C361.332977,216.725677 360.420837,217.136871 359.478577,217.455292 
	C347.191284,221.607727 334.703949,221.604706 322.226410,218.738174 
	C316.327209,217.382889 315.272766,214.366867 317.777435,208.914017 
	C320.551758,202.874100 323.248901,196.797913 325.899475,190.702652 
	C326.409607,189.529510 326.549133,188.195206 326.859650,186.935257 
	C326.293488,186.715668 325.727325,186.496078 325.161163,186.276489 
	C322.196655,192.460800 319.232147,198.645126 315.959564,205.520447 
M317.619171,149.213562 
	C319.258087,148.710327 320.897034,148.207092 322.535950,147.703873 
	C322.342255,147.023468 322.148590,146.343063 321.954895,145.662659 
	C318.252808,146.376022 314.550751,147.089386 310.848663,147.802750 
	C310.959991,148.472687 311.071289,149.142639 311.182617,149.812576 
	C313.062042,149.651917 314.941437,149.491257 317.619171,149.213562 
z"/>
<path fill="#AFA0BA" opacity="1.000000" stroke="none" 
	d="
M236.343872,144.529694 
	C239.900238,141.982849 242.835052,142.029953 246.027023,144.897919 
	C247.441147,146.168518 249.857376,146.386856 251.860641,146.927505 
	C259.501038,148.989517 267.711761,149.861267 274.677216,153.280411 
	C284.600159,158.151260 289.025085,167.055084 287.709229,178.541977 
	C285.165863,200.745026 265.059479,222.335114 243.127151,226.095322 
	C225.146729,229.178009 206.183273,217.871796 209.428055,194.941818 
	C212.262527,174.911499 222.160767,158.799973 236.343872,144.529694 
M260.192413,150.808899 
	C255.085617,150.468597 249.978806,150.128311 244.872009,149.788025 
	C244.726974,150.267380 244.581940,150.746750 244.436890,151.226120 
	C245.308090,152.292709 246.179276,153.359314 246.479279,154.662323 
	C245.839050,154.535538 244.899002,154.636032 244.604340,154.247299 
	C241.127487,149.660629 238.310822,151.631516 235.499130,154.989456 
	C235.003204,155.581726 234.147598,155.872818 233.420258,155.595551 
	C236.321289,152.723618 239.222321,149.851700 242.459976,146.646530 
	C240.567810,143.618683 238.519089,145.784195 236.672699,147.614151 
	C224.307617,159.869064 215.621582,174.328201 212.396683,191.491562 
	C210.731689,200.352859 210.500595,209.460693 217.973618,216.702454 
	C228.799408,227.193222 250.953537,226.185257 262.141113,214.497665 
	C262.244507,214.389603 261.978943,213.928360 261.884521,213.628464 
	C261.553009,213.588547 261.189789,213.431198 260.931824,213.535095 
	C260.165894,213.843597 259.407227,214.199921 258.705902,214.634583 
	C251.075333,219.363434 242.677383,220.956314 233.840958,220.708755 
	C224.016785,220.433517 215.643433,212.014725 215.196854,202.670776 
	C214.631409,190.840469 217.425980,179.846558 223.162903,169.706436 
	C225.772659,165.093628 229.692535,161.222061 232.926147,157.701828 
	C231.808609,159.350174 230.689331,160.997345 229.573868,162.647095 
	C221.668198,174.339432 216.269775,186.854172 217.132874,201.348007 
	C217.759781,211.875443 224.035797,218.691589 234.558990,218.717606 
	C240.709351,218.732803 247.421555,217.864273 252.916718,215.314850 
	C271.561066,206.665024 282.149445,192.249710 281.880951,171.383774 
	C281.880951,176.894257 281.880951,182.404755 281.880951,189.184860 
	C290.920197,169.168961 280.677246,153.709549 260.192413,150.808899 
M273.413574,203.492447 
	C273.413574,203.492447 273.504486,203.442337 273.413574,203.492447 
z"/>
<path fill="#C4B6C9" opacity="1.000000" stroke="none" 
	d="
M425.526154,157.279205 
	C425.526154,157.279205 425.680542,157.717697 425.725830,158.317657 
	C428.510681,167.613937 431.250214,176.310257 433.675598,184.892105 
	C432.247467,183.240738 431.133545,181.703842 429.930054,180.043350 
	C429.134766,188.835266 429.129486,188.802414 419.715851,190.312210 
	C415.055542,191.059662 410.418762,191.953781 405.771332,192.781540 
	C405.843811,193.209717 405.916290,193.637894 405.988739,194.066071 
	C412.002045,193.135391 418.001984,192.104431 424.032318,191.301697 
	C430.300293,190.467331 431.845825,191.515305 433.055969,197.572556 
	C434.817749,206.390823 436.306641,215.263611 438.071198,224.081284 
	C438.483734,226.142761 439.536133,228.076187 440.673706,231.066223 
	C441.521301,229.273056 441.957855,228.803482 441.884705,228.435196 
	C440.976654,223.865692 439.833344,219.337341 439.080872,214.744278 
	C438.448242,210.882858 438.248444,206.950562 438.092346,203.354401 
	C440.102448,211.696747 441.999969,219.711014 443.533356,227.794388 
	C443.795013,229.173798 442.498413,230.848801 441.921661,232.387268 
	C440.579041,231.414185 438.974030,230.653992 437.964935,229.410294 
	C436.877686,228.070251 436.348663,226.277283 435.576111,224.681900 
	C435.491516,224.305099 435.406921,223.928314 435.446503,223.049240 
	C435.346893,221.694626 435.123077,220.842316 434.857574,219.632538 
	C434.434814,218.160828 434.053711,217.046555 433.672607,215.932297 
	C433.649261,215.526550 433.625916,215.120804 433.615112,214.102905 
	C433.586212,212.742783 433.544800,211.994812 433.564819,210.935898 
	C433.356476,210.085114 433.086761,209.545288 432.817017,209.005463 
	C432.696686,208.589584 432.576355,208.173706 432.455902,207.170563 
	C432.456696,206.125229 432.457581,205.667191 432.541443,204.822266 
	C432.263855,202.507874 431.989868,200.559280 431.526825,198.656723 
	C430.041077,192.552383 428.387817,191.780304 421.664185,194.106018 
	C420.617523,194.229416 419.922729,194.338379 418.868469,194.350067 
	C417.344208,194.540283 416.179474,194.827744 414.668274,195.150818 
	C413.637085,195.311462 412.952393,195.436493 411.931976,195.465073 
	C410.734497,195.627563 409.872681,195.886505 408.706116,196.173737 
	C407.998291,196.263321 407.595215,196.324615 406.831909,196.295959 
	C405.314941,196.521378 404.158203,196.836731 402.698181,197.170731 
	C401.994659,197.249451 401.594482,197.309509 400.861938,197.305511 
	C399.638550,197.756927 398.747498,198.272385 397.856445,198.787872 
	C397.856445,198.787872 397.552002,199.008270 397.050049,199.197113 
	C395.697906,200.956116 394.594635,202.441986 394.038910,204.110245 
	C390.692017,214.157425 387.526855,224.265289 384.154541,234.303696 
	C383.559418,236.075150 382.274567,237.614914 381.340271,238.870270 
	C384.740143,227.741714 388.041412,216.983047 391.505737,206.277145 
	C393.068237,201.448639 393.970123,196.040421 400.523529,194.774628 
	C398.622894,192.400040 397.276062,190.717346 396.115112,189.266876 
	C394.590942,190.670593 393.313019,191.847504 392.107971,192.661926 
	C396.021606,179.662231 399.956696,167.052536 403.650452,154.372513 
	C404.898132,150.089432 406.400482,146.617996 411.686676,146.566803 
	C412.575470,146.558197 413.452301,145.317490 414.334656,144.646088 
	C414.920197,144.604156 415.505737,144.562256 416.492828,144.858948 
	C419.771637,149.224762 422.648895,153.251984 425.526154,157.279205 
M419.113617,159.394974 
	C418.591919,158.355820 418.231201,157.184891 417.512482,156.307068 
	C416.300842,154.827179 414.862152,153.533157 413.518982,152.160965 
	C412.370483,153.670059 410.750824,155.013168 410.151093,156.715576 
	C406.675415,166.581024 403.425964,176.526443 400.131073,186.455139 
	C398.971954,189.947906 400.522430,191.143005 403.862915,190.596970 
	C410.421265,189.524887 416.965973,188.367630 423.531036,187.339355 
	C427.029388,186.791397 427.996704,184.924622 426.887451,181.702011 
	C424.404602,174.488739 421.940308,167.269089 419.113617,159.394974 
M398.809265,182.016541 
	C398.489624,181.895218 398.169952,181.773895 397.850342,181.652557 
	C397.823883,182.068802 397.797424,182.485031 397.770966,182.901276 
	C398.105469,182.734039 398.440002,182.566788 398.809265,182.016541 
z"/>
<path fill="#64527F" opacity="1.000000" stroke="none" 
	d="
M194.345947,168.620209 
	C194.475082,173.070648 195.007721,177.553009 194.658478,181.965576 
	C193.568222,195.740021 192.312973,209.570648 186.019272,222.176285 
	C184.880478,224.457169 181.959061,226.728470 179.534744,227.155869 
	C178.087402,227.411041 175.122787,224.391541 174.354965,222.290527 
	C169.906250,210.117279 165.924911,197.773666 161.738800,185.503601 
	C161.118622,183.685791 160.251129,181.952332 158.208740,180.090851 
	C156.437302,185.821884 154.708740,191.566620 152.884689,197.280869 
	C149.903381,206.620453 146.907761,215.956085 143.817017,225.259796 
	C142.713120,228.582733 140.593063,232.092758 136.918152,231.092712 
	C134.601974,230.462387 132.076965,227.102036 131.404800,224.510117 
	C127.741600,210.384720 124.906517,196.043549 121.196098,181.931854 
	C119.445671,175.274506 116.471924,168.925095 113.864731,162.512466 
	C112.555061,159.291229 112.614288,156.618332 115.890022,154.827057 
	C119.198143,153.018066 124.841026,154.560410 125.894440,157.744949 
	C126.861366,160.668015 127.164177,163.810745 127.350296,166.877014 
	C126.026077,164.400513 125.354546,161.776962 124.136627,159.437897 
	C122.491249,156.277878 120.183548,154.341110 116.730598,157.641022 
	C116.685440,157.665665 116.628105,157.750717 116.368240,157.868805 
	C116.273499,159.099869 116.438629,160.212860 116.769295,161.609344 
	C117.753822,163.192032 118.572823,164.491211 119.347137,166.171295 
	C120.534302,170.034851 121.766159,173.517502 123.052109,177.300659 
	C123.214485,177.993362 123.322769,178.385574 123.355484,179.147888 
	C123.890953,181.340912 124.501999,183.163788 125.171852,185.282623 
	C125.334808,185.966995 125.438965,186.355438 125.467422,187.044540 
	C125.631721,187.892822 125.871712,188.440445 126.164337,189.284546 
	C126.327599,189.966751 126.438225,190.352448 126.467606,191.039246 
	C126.624352,191.889908 126.862343,192.439499 127.154205,193.334106 
	C127.350922,194.361908 127.493774,195.044662 127.552002,196.027206 
	C127.702682,196.878052 127.937981,197.429108 128.231293,198.268799 
	C128.400024,198.933899 128.510742,199.310379 128.519775,199.971863 
	C128.698380,200.972977 128.978683,201.689056 129.314636,202.674316 
	C129.458740,203.299103 129.547226,203.654709 129.499252,204.246918 
	C129.718857,205.443710 130.074921,206.403885 130.465378,207.638718 
	C130.571457,208.274994 130.643143,208.636612 130.592468,209.198853 
	C130.735657,210.073837 131.001190,210.748245 131.318817,211.746124 
	C131.496948,212.712524 131.622986,213.355408 131.633209,214.294952 
	C132.156281,216.848816 132.795151,219.106033 133.477325,221.638565 
	C133.605759,222.275162 133.690918,222.636475 133.668594,223.289703 
	C134.711044,225.337769 135.860962,227.093933 137.010895,228.850067 
	C138.661591,227.434631 141.122971,226.330429 141.808640,224.544495 
	C143.742859,219.506470 144.947922,214.188477 146.501160,208.625504 
	C146.546738,208.030319 146.531540,207.790482 146.482147,207.555527 
	C146.447952,207.560425 146.506760,207.591400 146.600998,207.561707 
	C146.695236,207.532028 146.787598,207.357361 147.034042,207.140167 
	C150.743195,196.217957 154.205887,185.512939 157.668594,174.807938 
	C158.202286,174.859970 158.735962,174.912018 159.269653,174.964050 
	C160.651184,177.111313 162.032700,179.258560 163.520233,181.740280 
	C163.922348,182.962128 164.218445,183.849518 164.461151,185.120209 
	C166.691833,192.174362 168.975876,198.845184 171.313309,205.768631 
	C171.483002,206.344971 171.599335,206.668686 171.619019,207.289047 
	C172.485153,210.211868 173.447937,212.838043 174.490753,215.789520 
	C174.969498,217.159393 175.368195,218.203995 175.754501,219.617889 
	C177.129471,221.632629 178.516830,223.278107 179.904205,224.923553 
	C181.427811,223.561005 183.883667,222.445236 184.320511,220.795013 
	C186.761826,211.572433 188.714966,202.220627 190.896881,192.598679 
	C190.974930,191.857727 190.991013,191.431076 191.203613,190.668762 
	C191.489365,188.502396 191.578568,186.671692 191.730225,184.488037 
	C191.848679,183.420914 191.904694,182.706741 192.157806,181.638275 
	C193.018570,177.062729 193.682251,172.841476 194.345947,168.620209 
z"/>
<path fill="#7D6C93" opacity="1.000000" stroke="none" 
	d="
M381.308228,239.261658 
	C382.274567,237.614914 383.559418,236.075150 384.154541,234.303696 
	C387.526855,224.265289 390.692017,214.157425 394.038910,204.110245 
	C394.594635,202.441986 395.697906,200.956116 396.896118,199.304901 
	C393.375305,211.874542 389.553528,224.539948 385.607635,237.166565 
	C384.493500,240.731766 382.382782,244.011887 378.113678,242.653229 
	C373.725067,241.256546 374.245850,237.308105 375.378815,233.818268 
	C378.099762,225.436874 381.022186,217.121033 383.774780,208.749619 
	C384.214264,207.412979 384.195557,205.925690 384.388672,204.508026 
	C382.827179,204.408691 381.258545,204.173462 379.706604,204.255219 
	C378.571655,204.315018 377.471710,204.863571 376.333557,205.069199 
	C372.552765,205.752274 369.899261,203.970200 369.298096,200.464401 
	C368.705994,197.011414 371.481110,195.600510 374.501678,194.991516 
	C378.075928,194.270844 381.686829,193.708282 385.227905,192.853546 
	C388.878357,191.972443 391.047791,189.839310 392.083405,185.885315 
	C394.936798,174.990860 398.585693,164.301468 401.325928,153.381882 
	C403.029297,146.594025 407.251678,144.386856 413.936890,144.538925 
	C413.452301,145.317490 412.575470,146.558197 411.686676,146.566803 
	C406.400482,146.617996 404.898132,150.089432 403.650452,154.372513 
	C399.956696,167.052536 396.021606,179.662231 392.092102,192.656616 
	C392.003357,193.013779 392.023712,193.033585 391.636169,193.080231 
	C385.786926,194.465347 380.278137,195.647217 374.900879,197.266083 
	C373.738068,197.616180 373.048431,199.538071 372.140869,200.735977 
	C373.489532,201.364807 374.970764,202.706360 376.161255,202.484894 
	C379.355042,201.890747 382.424438,200.627747 385.690002,199.675583 
	C385.836823,199.720779 386.144104,199.721832 386.144104,199.721832 
	C386.144104,199.721832 386.438354,199.633301 386.631470,199.932434 
	C386.988861,202.080246 387.572296,204.011902 387.226288,205.759521 
	C386.593903,208.953293 385.411621,212.038177 384.342102,215.462814 
	C384.122223,216.166214 384.018951,216.575287 383.665100,217.228867 
	C381.359039,223.364883 379.178925,229.217987 377.342346,235.176956 
	C376.923157,236.537140 377.690033,238.262878 377.911011,239.820374 
	C379.014130,239.660324 380.117279,239.500305 381.255920,239.335785 
	C381.291473,239.331299 381.308228,239.261658 381.308228,239.261658 
z"/>
<path fill="#BBADC3" opacity="1.000000" stroke="none" 
	d="
M62.652962,220.978043 
	C62.598839,221.345581 62.544708,221.713104 62.184818,222.555634 
	C60.317719,224.640961 58.756382,226.251297 57.195045,227.861649 
	C56.507713,225.696060 55.266705,223.538544 55.234932,221.363373 
	C55.131989,214.316681 55.472748,207.263504 55.985466,200.395203 
	C56.660789,206.093506 57.032452,211.607498 57.306858,217.126312 
	C57.420433,219.410477 57.325699,221.705002 57.325699,223.994812 
	C57.882183,224.028656 58.438667,224.062485 58.995148,224.096329 
	C59.366219,222.286606 59.969608,220.488480 60.060772,218.664749 
	C60.260292,214.673203 60.087288,210.663345 60.275002,206.670776 
	C60.496136,201.967499 62.624313,200.272476 67.123856,201.523621 
	C70.636681,202.500412 73.996819,204.040314 77.401817,205.388077 
	C85.913773,208.757263 94.378784,212.249039 102.940323,215.486145 
	C105.110504,216.306686 107.571434,216.358276 109.898773,216.763184 
	C110.061211,216.066727 110.223656,215.370255 110.386101,214.673782 
	C106.107643,213.125809 101.837212,211.555222 97.549133,210.034378 
	C87.197792,206.363052 76.801178,202.813644 66.520477,198.954910 
	C64.911438,198.350998 63.012547,196.523041 62.746914,194.999664 
	C62.552078,193.882324 64.809875,192.337280 65.903725,191.305420 
	C63.296253,195.444336 65.567947,196.936661 68.863281,198.053711 
	C82.100845,202.540985 95.370056,206.944168 108.500862,211.726349 
	C110.293869,212.379349 111.371231,214.997391 112.779938,216.705612 
	C110.713623,217.197510 108.460823,218.470917 106.616905,218.030869 
	C101.621468,216.838760 96.729874,215.100143 91.924698,213.247330 
	C84.010193,210.195602 76.221382,206.819016 68.324188,203.720566 
	C65.997269,202.807602 62.811306,201.878052 62.492702,205.672928 
	C62.067757,210.734467 62.556606,215.872726 62.652962,220.978043 
z"/>
<path fill="#715F8A" opacity="1.000000" stroke="none" 
	d="
M63.024559,220.754181 
	C62.556606,215.872726 62.067757,210.734467 62.492702,205.672928 
	C62.811306,201.878052 65.997269,202.807602 68.324188,203.720566 
	C76.221382,206.819016 84.010193,210.195602 91.924698,213.247330 
	C96.729874,215.100143 101.621468,216.838760 106.616905,218.030869 
	C108.460823,218.470917 110.713623,217.197510 112.779938,216.705612 
	C111.371231,214.997391 110.293869,212.379349 108.500862,211.726349 
	C95.370056,206.944168 82.100845,202.540985 68.863281,198.053711 
	C65.567947,196.936661 63.296253,195.444336 66.162048,191.105499 
	C68.118210,188.830734 69.745178,187.078430 71.700066,185.247742 
	C75.265846,182.378113 78.503708,179.586884 81.741554,176.795654 
	C78.099998,181.019913 74.594238,185.371536 70.782288,189.436005 
	C66.089752,194.439392 66.241249,195.354782 72.689590,197.541458 
	C85.118919,201.756332 97.531273,206.021317 109.947388,210.275085 
	C112.984299,211.315536 116.316055,212.276108 115.494217,216.554077 
	C114.849693,219.909042 110.816132,221.937088 106.560158,220.510971 
	C97.439972,217.454880 88.463844,213.966080 79.448265,210.602097 
	C76.181961,209.383331 73.010117,207.906189 69.726646,206.739853 
	C64.467506,204.871780 63.819290,205.468063 63.833286,211.165390 
	C63.840954,214.286652 63.551586,217.408646 63.024559,220.754181 
z"/>
<path fill="#715F8A" opacity="1.000000" stroke="none" 
	d="
M55.642605,200.212814 
	C55.472748,207.263504 55.131989,214.316681 55.234932,221.363373 
	C55.266705,223.538544 56.507713,225.696060 57.195045,227.861649 
	C58.756382,226.251297 60.317719,224.640961 62.149368,222.832031 
	C63.749096,226.853912 61.826653,229.534988 57.990276,230.641998 
	C55.208427,231.444748 52.508877,227.525192 52.666416,223.216049 
	C52.830467,218.728867 53.324890,214.245697 53.303493,209.762558 
	C53.288723,206.666748 52.600739,203.578094 52.296421,200.478119 
	C52.137566,198.859909 51.481934,196.786774 52.206532,195.667236 
	C56.926159,188.375214 54.972446,180.461075 54.281467,172.867874 
	C53.531918,164.631042 51.585812,156.503616 50.174252,148.326279 
	C49.619476,145.112427 49.856949,141.752228 53.659317,141.323608 
	C55.715668,141.091797 58.608131,142.528625 60.036644,144.162720 
	C61.351017,145.666229 61.210072,148.441971 61.233742,150.679749 
	C60.219067,149.158569 59.993080,147.381104 59.059025,146.133911 
	C58.028084,144.757355 56.347744,143.867142 54.950264,142.765106 
	C54.143764,144.369003 52.559750,146.043823 52.698193,147.561508 
	C52.958744,150.417847 54.212982,153.183548 55.079910,156.342499 
	C55.240108,157.397476 55.374496,158.096893 55.418213,159.201050 
	C55.922569,162.730820 56.517590,165.855835 57.123169,169.337570 
	C57.203762,170.403534 57.273792,171.112793 57.226204,172.290497 
	C56.488644,180.823288 59.168625,189.240372 54.482670,196.905426 
	C54.167240,197.421371 54.983059,198.628906 55.342918,199.701111 
	C55.413090,199.887421 55.642605,200.212814 55.642605,200.212814 
z"/>
<path fill="#715F8A" opacity="1.000000" stroke="none" 
	d="
M63.567780,178.041229 
	C66.026581,177.103439 69.262589,176.859650 70.819275,175.116318 
	C81.723389,162.904922 92.885010,150.858566 100.478218,136.080704 
	C101.417053,134.253540 103.925301,133.232758 105.706306,131.838318 
	C106.526649,134.180984 108.635582,137.043182 107.937859,138.773819 
	C105.319870,145.267380 101.785538,151.391525 98.143761,157.683868 
	C97.692886,157.713638 97.338074,157.380112 97.464149,157.060211 
	C106.682556,140.217407 106.855804,139.674896 103.695549,134.503387 
	C101.982727,138.068649 100.542343,141.066803 98.935486,144.347122 
	C97.856331,146.099167 96.943657,147.569061 95.735535,149.156952 
	C94.951965,150.177322 94.463844,151.079712 93.854637,152.115997 
	C93.733543,152.249878 93.549019,152.560226 93.256470,152.691132 
	C92.301712,153.876221 91.639503,154.930420 90.796875,156.217957 
	C90.008339,157.224808 89.400215,157.998306 88.505722,158.879181 
	C87.808922,159.654953 87.398499,160.323364 86.774788,161.197754 
	C85.944290,162.171204 85.327072,162.938705 84.427910,163.820679 
	C83.743019,164.606293 83.340073,165.277420 82.696655,166.160690 
	C81.208473,167.817261 79.960754,169.261688 78.396210,170.808426 
	C76.406197,172.951157 74.733002,174.991562 72.839523,177.262939 
	C71.335968,178.913315 70.052711,180.332718 68.440956,181.851593 
	C66.658615,182.342529 65.204773,182.733994 63.750923,183.125458 
	C63.689877,181.430710 63.628830,179.735977 63.567780,178.041229 
z"/>
<path fill="#64527F" opacity="1.000000" stroke="none" 
	d="
M135.782806,202.011230 
	C136.710526,203.319290 137.638260,204.627335 139.257217,206.910019 
	C141.729004,199.051392 143.950241,192.089325 146.104889,185.106720 
	C147.757126,179.752274 149.118759,174.298935 150.983505,169.021683 
	C153.297028,162.474380 156.340714,160.037216 161.078064,160.901413 
	C166.539856,161.897812 166.186737,166.601654 166.339111,170.792847 
	C164.975388,168.921646 164.183838,166.746765 162.886353,164.934006 
	C161.172363,162.539307 159.004166,161.378586 156.493210,164.732513 
	C155.697235,165.862854 155.146027,166.778229 154.313232,167.876526 
	C153.483948,169.765213 152.936249,171.470963 152.258804,173.503860 
	C151.890045,174.736130 151.651047,175.641266 151.187225,176.745178 
	C150.826279,177.701599 150.690201,178.459244 150.414627,179.566422 
	C149.831757,181.609329 149.388351,183.302689 148.697906,185.240936 
	C148.133423,187.058777 147.815979,188.631729 147.377075,190.567795 
	C147.003677,192.174072 146.751755,193.417206 146.216949,194.868942 
	C143.821152,200.910553 141.708237,206.743561 139.595322,212.576584 
	C138.881241,212.490097 138.167160,212.403610 137.453079,212.317123 
	C136.896317,208.881821 136.339554,205.446533 135.782806,202.011230 
z"/>
<path fill="#AC9DB7" opacity="1.000000" stroke="none" 
	d="
M194.348602,168.207443 
	C193.682251,172.841476 193.018570,177.062729 191.980011,181.319031 
	C191.485580,179.627640 191.366043,177.901230 191.285675,175.825684 
	C191.478439,172.376236 191.566208,169.270889 191.801147,166.176743 
	C192.149170,161.593445 193.188004,156.952896 190.843063,152.680023 
	C190.368546,152.687408 189.894012,152.694794 189.419495,152.702179 
	C189.419495,160.446457 189.419495,168.190750 189.264160,176.202820 
	C188.591339,177.337753 188.073837,178.204910 187.371857,178.862274 
	C186.953629,178.364929 186.719894,178.077362 186.486145,177.789810 
	C186.584412,169.166168 186.682678,160.542542 187.113617,151.323547 
	C187.948776,150.062729 188.451279,149.397247 188.953766,148.731766 
	C189.414688,148.715530 189.875595,148.699295 190.866409,148.952927 
	C191.977554,149.417572 192.558823,149.612335 193.140076,149.807083 
	C193.140076,149.807083 193.145584,149.852631 193.201859,150.270111 
	C193.708282,154.450119 194.158432,158.212646 194.608582,161.975189 
	C194.522797,163.915024 194.437012,165.854843 194.348602,168.207443 
z"/>
<path fill="#BBADC3" opacity="1.000000" stroke="none" 
	d="
M63.562664,177.587677 
	C63.628830,179.735977 63.689877,181.430710 63.750923,183.125458 
	C65.204773,182.733994 66.658615,182.342529 68.405273,182.201660 
	C66.856224,183.740433 65.014366,185.028595 63.172516,186.316772 
	C62.475956,184.477646 61.426762,182.687134 61.164997,180.788086 
	C60.766644,177.898087 60.913891,174.932907 60.844879,171.626770 
	C60.324036,166.687469 59.634090,162.132401 59.295494,157.551361 
	C58.969700,153.143539 59.113239,148.671432 55.863495,145.354767 
	C55.392544,145.459061 54.921593,145.563354 54.450645,145.667648 
	C54.651794,149.107407 54.852940,152.547165 55.054092,155.986923 
	C54.212982,153.183548 52.958744,150.417847 52.698193,147.561508 
	C52.559750,146.043823 54.143764,144.369003 54.950264,142.765106 
	C56.347744,143.867142 58.028084,144.757355 59.059025,146.133911 
	C59.993080,147.381104 60.219067,149.158569 61.021507,150.882812 
	C61.348679,151.504196 61.411591,151.944992 61.355011,152.995941 
	C61.619442,155.189560 62.003368,156.773026 62.387295,158.356506 
	C62.461300,159.027405 62.535305,159.698288 62.510380,161.000671 
	C62.697758,163.550751 62.984066,165.469360 63.270374,167.387955 
	C63.366100,170.636673 63.461823,173.885391 63.562664,177.587677 
z"/>
<path fill="#AC9DB7" opacity="1.000000" stroke="none" 
	d="
M135.708344,201.693069 
	C136.339554,205.446533 136.896317,208.881821 137.453079,212.317123 
	C138.167160,212.403610 138.881241,212.490097 139.595322,212.576584 
	C141.708237,206.743561 143.821152,200.910553 146.287140,195.271317 
	C144.920181,201.177933 143.409225,206.968307 141.338516,212.551056 
	C140.796280,214.012970 138.515762,214.830139 136.845612,215.634796 
	C135.082657,210.221252 133.507645,205.116318 131.991699,199.679245 
	C131.960678,198.230515 131.949097,197.100967 131.767319,195.999527 
	C130.837769,190.366745 129.864334,184.741226 129.263000,179.075928 
	C129.856232,179.003204 130.092712,178.967712 130.329193,178.932220 
	C130.402893,179.329956 130.476593,179.727692 130.529724,180.707916 
	C130.817673,181.990234 131.126205,182.690094 131.434753,183.389938 
	C131.479797,183.752029 131.524841,184.114136 131.536819,184.945847 
	C131.805008,186.080078 132.106262,186.744705 132.407501,187.409317 
	C132.466599,187.770081 132.525696,188.130859 132.524368,188.931976 
	C132.740631,189.956741 133.017303,190.541138 133.293991,191.125534 
	C133.362030,191.547745 133.430069,191.969955 133.477493,192.907135 
	C133.749725,194.092392 134.042587,194.762665 134.335434,195.432938 
	C134.398026,195.784241 134.460617,196.135544 134.468658,196.950470 
	C134.717331,198.089645 135.020569,198.765182 135.323792,199.440720 
	C135.427155,200.085449 135.530518,200.730179 135.708344,201.693069 
z"/>
<path fill="#64527F" opacity="1.000000" stroke="none" 
	d="
M186.207703,177.999634 
	C186.719894,178.077362 186.953629,178.364929 187.323853,179.247375 
	C187.317657,182.230133 187.174957,184.618011 186.853638,187.251114 
	C186.682251,188.674988 186.689484,189.853622 186.634979,191.401367 
	C186.410339,193.520386 186.247452,195.270309 185.872803,197.340759 
	C184.406464,202.806732 183.151886,207.952179 181.897324,213.097610 
	C181.272980,213.096481 180.648636,213.095367 180.024307,213.094238 
	C178.671951,210.410400 177.319580,207.726562 175.895111,204.691711 
	C175.672363,203.887695 175.521698,203.434708 175.694336,202.973816 
	C176.233215,202.965607 176.448807,202.965302 176.664413,202.964981 
	C177.896790,203.909058 179.129181,204.853149 180.361557,205.797226 
	C181.032883,204.387680 182.101440,203.032837 182.304398,201.558807 
	C183.046204,196.171127 183.388412,190.728821 184.111969,185.338058 
	C184.435974,182.924042 185.306641,180.583389 186.207703,177.999634 
z"/>
<path fill="#7D6C93" opacity="1.000000" stroke="none" 
	d="
M435.425415,225.079224 
	C436.348663,226.277283 436.877686,228.070251 437.964935,229.410294 
	C438.974030,230.653992 440.579041,231.414185 441.921661,232.387268 
	C442.498413,230.848801 443.795013,229.173798 443.533356,227.794388 
	C441.999969,219.711014 440.102448,211.696747 438.070435,203.029266 
	C437.732880,201.973236 437.652649,201.547089 437.758118,200.924423 
	C438.211548,200.493622 438.479248,200.259338 438.746948,200.025055 
	C439.942444,204.916702 441.108154,209.815918 442.343018,214.697647 
	C443.313293,218.533463 444.362854,222.349304 445.388214,226.171066 
	C446.655212,230.893402 445.317932,234.234024 441.533936,234.632935 
	C437.289703,235.080383 436.184540,231.609680 435.207733,228.437744 
	C434.932037,227.542465 435.236420,226.468521 435.425415,225.079224 
z"/>
<path fill="#AC9DB7" opacity="1.000000" stroke="none" 
	d="
M156.737991,164.517563 
	C159.004166,161.378586 161.172363,162.539307 162.886353,164.934006 
	C164.183838,166.746765 164.975388,168.921646 166.263397,171.135498 
	C166.804474,172.051224 167.074249,172.766815 167.354874,174.056519 
	C169.364349,180.230972 171.362976,185.831268 173.361603,191.431580 
	C173.406509,191.766235 173.451401,192.100906 173.244919,192.699707 
	C172.773941,192.984756 172.554367,193.005692 172.065826,193.019211 
	C171.265839,192.935333 170.734802,192.858856 170.203857,192.478302 
	C167.725113,184.545547 165.147980,176.946747 162.814636,169.273834 
	C161.847366,166.093079 159.854813,164.708664 156.737991,164.517563 
z"/>
<path fill="#7D6C93" opacity="1.000000" stroke="none" 
	d="
M433.989746,185.006592 
	C431.250214,176.310257 428.510681,167.613937 425.809326,158.534576 
	C427.296295,161.155273 428.933624,164.085266 430.144928,167.181870 
	C431.577820,170.844833 432.892029,174.592438 433.799622,178.412201 
	C434.761505,182.460770 436.459045,183.980469 440.768677,182.536209 
	C442.052917,182.105850 444.049133,183.799942 445.300018,184.795105 
	C442.598480,185.413788 440.316010,185.758057 437.685730,186.108490 
	C436.875610,186.150162 436.413330,186.185684 435.765381,185.988403 
	C435.050842,185.507080 434.522034,185.258575 433.996735,185.005310 
	C434.000275,185.000549 433.989746,185.006592 433.989746,185.006592 
z"/>
<path fill="#C4B6C9" opacity="1.000000" stroke="none" 
	d="
M438.033569,186.102325 
	C440.316010,185.758057 442.598480,185.413788 445.212799,185.164200 
	C445.528229,185.857239 445.511749,186.455597 445.112000,187.449524 
	C443.364136,188.713165 442.094086,189.820404 440.617126,190.404251 
	C436.284790,192.116821 435.749390,194.725540 438.396484,198.312592 
	C438.473938,198.693192 438.551361,199.073792 438.687866,199.739716 
	C438.479248,200.259338 438.211548,200.493622 437.497437,200.707291 
	C433.904785,193.481674 434.095917,192.844788 441.314087,187.018387 
	C440.119995,186.684937 439.076782,186.393631 438.033569,186.102325 
z"/>
<path fill="#715F8A" opacity="1.000000" stroke="none" 
	d="
M97.870255,157.880432 
	C93.191589,163.940140 88.335556,169.833023 83.176758,175.398346 
	C83.610275,173.734833 84.346558,172.398865 85.281075,170.884903 
	C85.806870,170.288391 86.134422,169.869873 86.773872,169.332916 
	C89.699654,165.794571 92.313538,162.374664 95.045525,158.819061 
	C95.163628,158.683334 95.338989,158.369156 95.616722,158.316315 
	C96.375656,157.969025 96.856865,157.674576 97.338074,157.380112 
	C97.338074,157.380112 97.692886,157.713638 97.870255,157.880432 
z"/>
<path fill="#BBADC3" opacity="1.000000" stroke="none" 
	d="
M85.082840,171.062897 
	C84.346558,172.398865 83.610275,173.734833 82.826813,175.398041 
	C82.554703,175.968628 82.325500,176.207886 81.916794,176.619354 
	C78.503708,179.586884 75.265846,182.378113 71.703651,184.892944 
	C75.947159,180.098648 80.514992,175.580780 85.082840,171.062897 
z"/>
<path fill="#AC9DB7" opacity="1.000000" stroke="none" 
	d="
M116.775757,157.616379 
	C120.183548,154.341110 122.491249,156.277878 124.136627,159.437897 
	C125.354546,161.776962 126.026077,164.400513 127.197266,167.127075 
	C127.504585,167.725113 127.555649,168.093414 127.585052,169.015030 
	C127.522186,170.788483 127.480980,172.008636 127.170135,173.027985 
	C126.000076,170.252014 124.729622,167.739258 124.282227,165.087631 
	C123.530792,160.634064 121.494255,157.885986 116.775757,157.616379 
z"/>
<path fill="#7D6C93" opacity="1.000000" stroke="none" 
	d="
M422.016052,194.091583 
	C428.387817,191.780304 430.041077,192.552383 431.526825,198.656723 
	C431.989868,200.559280 432.263855,202.507874 432.303406,204.708313 
	C431.398071,204.590317 430.813721,204.199387 430.229370,203.808441 
	C428.761780,200.432678 430.805817,194.495514 423.288757,194.967606 
	C422.471191,194.586090 422.243622,194.338837 422.016052,194.091583 
z"/>
<path fill="#64527F" opacity="1.000000" stroke="none" 
	d="
M194.884872,161.780121 
	C194.158432,158.212646 193.708282,154.450119 193.224579,150.273224 
	C197.592712,153.138397 197.209366,157.221878 194.884872,161.780121 
z"/>
<path fill="#7D6C93" opacity="1.000000" stroke="none" 
	d="
M425.614868,156.909805 
	C422.648895,153.251984 419.771637,149.224762 416.785156,144.893097 
	C418.217865,145.483780 420.319855,146.015259 421.185944,147.349182 
	C423.031799,150.192200 424.236298,153.451614 425.614868,156.909805 
z"/>
<path fill="#64527F" opacity="1.000000" stroke="none" 
	d="
M173.444077,191.036865 
	C171.362976,185.831268 169.364349,180.230972 167.455505,174.325226 
	C169.539047,179.560593 171.532806,185.101364 173.444077,191.036865 
z"/>
<path fill="#7D6C93" opacity="1.000000" stroke="none" 
	d="
M438.551758,197.918320 
	C435.749390,194.725540 436.284790,192.116821 440.617126,190.404251 
	C442.094086,189.820404 443.364136,188.713165 445.044525,187.742020 
	C444.362244,189.073044 443.344574,190.493988 442.370972,191.944504 
	C441.131042,193.791840 439.926727,195.663101 438.551758,197.918320 
z"/>
<path fill="#64527F" opacity="1.000000" stroke="none" 
	d="
M127.439774,173.228790 
	C127.480980,172.008636 127.522186,170.788483 127.664795,169.282425 
	C128.746704,172.194290 129.727188,175.392075 130.518433,178.761032 
	C130.092712,178.967712 129.856232,179.003204 129.277557,179.060226 
	C128.935349,179.081757 128.895050,179.074341 128.977417,178.720352 
	C128.679855,177.266815 128.299927,176.167267 127.853287,174.757874 
	C127.670975,174.041611 127.555374,173.635208 127.439774,173.228790 
z"/>
<path fill="#AC9DB7" opacity="1.000000" stroke="none" 
	d="
M176.587708,202.715134 
	C176.448807,202.965302 176.233215,202.965607 175.433838,202.818390 
	C174.195862,200.123123 173.541672,197.575409 173.134430,195.261047 
	C174.354309,197.476746 175.327240,199.459106 176.300171,201.441467 
	C176.370453,201.782745 176.440735,202.124008 176.587708,202.715134 
z"/>
<path fill="#715F8A" opacity="1.000000" stroke="none" 
	d="
M63.442551,167.039124 
	C62.984066,165.469360 62.697758,163.550751 62.572746,161.332428 
	C63.027599,162.918564 63.321163,164.804413 63.442551,167.039124 
z"/>
<path fill="#64527F" opacity="1.000000" stroke="none" 
	d="
M176.393829,201.059143 
	C175.327240,199.459106 174.354309,197.476746 173.062073,194.922058 
	C172.606781,193.908707 172.470779,193.467651 172.334778,193.026611 
	C172.554367,193.005692 172.773941,192.984756 173.323456,192.940704 
	C174.598099,195.503983 175.542801,198.090408 176.393829,201.059143 
z"/>
<path fill="#715F8A" opacity="1.000000" stroke="none" 
	d="
M62.566502,158.041718 
	C62.003368,156.773026 61.619442,155.189560 61.397404,153.327209 
	C61.954762,154.607864 62.350235,156.167404 62.566502,158.041718 
z"/>
<path fill="#4F3C70" opacity="1.000000" stroke="none" 
	d="
M412.267670,195.561523 
	C412.952393,195.436493 413.637085,195.311462 414.902527,195.317749 
	C416.014648,195.674103 416.546051,195.899155 417.077423,196.124207 
	C415.572205,196.517456 414.067017,196.910706 412.317657,196.898895 
	C412.189301,196.193710 412.254028,195.882935 412.267670,195.561523 
z"/>
<path fill="#4F3C70" opacity="1.000000" stroke="none" 
	d="
M433.412659,216.056305 
	C434.053711,217.046555 434.434814,218.160828 434.551819,219.625168 
	C434.083984,219.983307 433.880249,219.991379 433.676514,219.999466 
	C433.501892,218.726410 433.327301,217.453369 433.412659,216.056305 
z"/>
<path fill="#4F3C70" opacity="1.000000" stroke="none" 
	d="
M421.664185,194.106018 
	C422.243622,194.338837 422.471191,194.586090 422.885254,195.005753 
	C421.871796,195.510300 420.671844,195.842438 419.261444,195.768738 
	C419.164856,195.068329 419.223846,194.763138 419.227966,194.447342 
	C419.922729,194.338379 420.617523,194.229416 421.664185,194.106018 
z"/>
<path fill="#4F3C70" opacity="1.000000" stroke="none" 
	d="
M433.503418,211.246857 
	C433.544800,211.994812 433.586212,212.742783 433.466614,213.832596 
	C432.765350,213.268784 432.225067,212.363144 432.080200,211.267456 
	C432.818237,211.133911 433.160858,211.190384 433.503418,211.246857 
z"/>
<path fill="#7D6C93" opacity="1.000000" stroke="none" 
	d="
M418.868469,194.350067 
	C419.223846,194.763138 419.164856,195.068329 419.009888,195.592865 
	C418.547211,195.882477 418.125610,195.942139 417.390717,196.062988 
	C416.546051,195.899155 416.014648,195.674103 415.248993,195.282135 
	C416.179474,194.827744 417.344208,194.540283 418.868469,194.350067 
z"/>
<path fill="#7D6C93" opacity="1.000000" stroke="none" 
	d="
M403.001495,197.152100 
	C404.158203,196.836731 405.314941,196.521378 406.814117,196.540466 
	C407.061737,197.188385 406.992645,197.507431 406.949310,197.832062 
	C405.889343,197.988297 404.829407,198.144547 403.371979,198.054901 
	C402.983521,197.590042 402.992493,197.371063 403.001495,197.152100 
z"/>
<path fill="#4F3C70" opacity="1.000000" stroke="none" 
	d="
M407.170227,197.993103 
	C406.992645,197.507431 407.061737,197.188385 407.174377,196.630402 
	C407.595215,196.324615 407.998291,196.263321 408.871765,196.373505 
	C409.593781,196.783096 409.845459,197.021225 410.097107,197.259338 
	C409.195129,197.557602 408.293121,197.855865 407.170227,197.993103 
z"/>
<path fill="#4F3C70" opacity="1.000000" stroke="none" 
	d="
M430.230927,204.121216 
	C430.813721,204.199387 431.398071,204.590317 432.220459,205.095200 
	C432.457581,205.667191 432.456696,206.125229 432.295166,206.888550 
	C431.500519,206.273895 430.866516,205.353943 430.230927,204.121216 
z"/>
<path fill="#64527F" opacity="1.000000" stroke="none" 
	d="
M188.743439,148.600769 
	C188.451279,149.397247 187.948776,150.062729 187.152252,150.854950 
	C187.416519,150.144394 187.974808,149.307083 188.743439,148.600769 
z"/>
<path fill="#64527F" opacity="1.000000" stroke="none" 
	d="
M133.471436,190.963898 
	C133.017303,190.541138 132.740631,189.956741 132.590485,189.198151 
	C133.027649,189.616714 133.338272,190.209488 133.471436,190.963898 
z"/>
<path fill="#4F3C70" opacity="1.000000" stroke="none" 
	d="
M402.698181,197.170746 
	C402.992493,197.371063 402.983521,197.590042 402.978943,198.138306 
	C402.425201,198.672241 401.867035,198.876907 401.181274,198.706787 
	C401.155396,198.019226 401.202301,197.698410 401.194305,197.369583 
	C401.594482,197.309509 401.994659,197.249451 402.698181,197.170746 
z"/>
<path fill="#7D6C93" opacity="1.000000" stroke="none" 
	d="
M400.861938,197.305511 
	C401.202301,197.698410 401.155396,198.019226 401.020172,198.572998 
	C400.198517,198.870972 399.410339,198.927933 398.239319,198.886383 
	C398.747498,198.272385 399.638550,197.756927 400.861938,197.305511 
z"/>
<path fill="#7D6C93" opacity="1.000000" stroke="none" 
	d="
M410.412109,197.201996 
	C409.845459,197.021225 409.593781,196.783096 409.176514,196.345200 
	C409.872681,195.886505 410.734497,195.627563 411.931976,195.465073 
	C412.254028,195.882935 412.189301,196.193710 412.034119,196.729416 
	C411.572205,197.024872 411.149628,197.084763 410.412109,197.201996 
z"/>
<path fill="#7D6C93" opacity="1.000000" stroke="none" 
	d="
M433.764282,220.336151 
	C433.880249,219.991379 434.083984,219.983307 434.593475,219.982620 
	C435.123077,220.842316 435.346893,221.694626 435.395050,222.764099 
	C434.763611,222.211792 434.307831,221.442322 433.764282,220.336151 
z"/>
<path fill="#64527F" opacity="1.000000" stroke="none" 
	d="
M132.480530,187.080170 
	C132.106262,186.744705 131.805008,186.080078 131.614990,185.208252 
	C132.001999,185.584381 132.277771,186.167709 132.480530,187.080170 
z"/>
<path fill="#64527F" opacity="1.000000" stroke="none" 
	d="
M131.525299,183.101501 
	C131.126205,182.690094 130.817673,181.990234 130.599762,181.003143 
	C130.998886,181.414948 131.307373,182.113998 131.525299,183.101501 
z"/>
<path fill="#7D6C93" opacity="1.000000" stroke="none" 
	d="
M433.564819,210.935913 
	C433.160858,211.190384 432.818237,211.133911 432.217346,211.037048 
	C432.111176,210.462341 432.263275,209.928040 432.616211,209.199585 
	C433.086761,209.545288 433.356476,210.085114 433.564819,210.935913 
z"/>
<path fill="#64527F" opacity="1.000000" stroke="none" 
	d="
M134.417297,195.103607 
	C134.042587,194.762665 133.749725,194.092392 133.567841,193.214981 
	C133.952255,193.596664 134.225708,194.185486 134.417297,195.103607 
z"/>
<path fill="#64527F" opacity="1.000000" stroke="none" 
	d="
M135.404205,199.110291 
	C135.020569,198.765182 134.717331,198.089645 134.536865,197.209351 
	C134.934616,197.596359 135.209625,198.188095 135.404205,199.110291 
z"/>
<path fill="#64527F" opacity="1.000000" stroke="none" 
	d="
M193.094482,149.562378 
	C192.558823,149.612335 191.977554,149.417572 191.212128,148.967743 
	C191.701599,148.914337 192.375229,149.116013 193.094482,149.562378 
z"/>
<path fill="#E1D4E0" opacity="1.000000" stroke="none" 
	d="
M316.113586,205.174942 
	C319.232147,198.645126 322.196655,192.460800 325.161163,186.276489 
	C325.727325,186.496078 326.293488,186.715668 326.859650,186.935257 
	C326.549133,188.195206 326.409607,189.529510 325.899475,190.702652 
	C323.248901,196.797913 320.551758,202.874100 317.777435,208.914017 
	C315.272766,214.366867 316.327209,217.382889 322.226410,218.738174 
	C334.703949,221.604706 347.191284,221.607727 359.478577,217.455292 
	C360.420837,217.136871 361.332977,216.725677 362.283020,216.436020 
	C362.549286,216.354858 362.901001,216.553772 365.121521,217.054245 
	C362.411469,219.078842 360.750885,221.336807 358.842224,221.570801 
	C350.149933,222.636459 341.391693,223.579681 332.649384,223.654526 
	C327.943542,223.694809 323.143097,222.172729 318.526703,220.858978 
	C312.221405,219.064606 311.198181,216.534348 313.719391,210.532120 
	C314.427887,208.845490 315.210785,207.190140 316.113586,205.174942 
z"/>
<path fill="#E1D3E1" opacity="1.000000" stroke="none" 
	d="
M328.011719,173.906067 
	C333.801117,172.664291 335.759491,167.740677 338.908447,163.106995 
	C339.896820,162.939606 340.189056,162.957458 340.481293,162.975311 
	C340.315369,163.442123 340.081146,163.896759 339.995392,164.377869 
	C339.637054,166.388428 339.323242,168.406952 338.993103,170.422546 
	C341.158661,170.400757 343.330017,170.466034 345.487549,170.323029 
	C346.693970,170.243073 347.877502,169.817490 349.071381,169.547653 
	C349.260071,170.160965 349.448761,170.774261 349.637451,171.387573 
	C345.469147,172.551453 340.874786,172.981216 337.251434,175.084091 
	C333.570129,177.220566 330.846405,181.007065 327.274994,184.488525 
	C327.478577,182.206146 327.657623,180.198471 327.817200,177.515167 
	C327.869019,175.861710 327.940369,174.883896 328.011719,173.906067 
z"/>
<path fill="#E3D5E1" opacity="1.000000" stroke="none" 
	d="
M343.878845,150.048782 
	C342.774078,145.852829 339.574982,146.126312 336.301056,146.449463 
	C332.681885,146.806686 329.054565,147.081818 325.430817,147.392685 
	C325.328766,146.727737 325.226715,146.062775 325.124664,145.397812 
	C327.545715,144.888245 329.948761,144.253448 332.392578,143.902267 
	C335.160156,143.504532 337.993408,143.533859 340.746338,143.070175 
	C346.064117,142.174438 347.539001,143.744308 345.860596,149.684586 
	C344.887360,150.050400 344.383087,150.049591 343.878845,150.048782 
z"/>
<path fill="#DACDDE" opacity="1.000000" stroke="none" 
	d="
M327.593048,173.905762 
	C327.940369,174.883896 327.869019,175.861710 327.835052,177.144409 
	C324.320160,178.013351 320.773743,178.618347 317.213226,179.124573 
	C315.384125,179.384628 313.529999,179.468521 311.522095,178.587112 
	C316.164673,174.687271 321.877869,175.022964 327.593048,173.905762 
z"/>
<path fill="#D2C5D7" opacity="1.000000" stroke="none" 
	d="
M317.220032,149.272064 
	C314.941437,149.491257 313.062042,149.651917 311.182617,149.812576 
	C311.071289,149.142639 310.959991,148.472687 310.848663,147.802750 
	C314.550751,147.089386 318.252808,146.376022 321.954895,145.662659 
	C322.148590,146.343063 322.342255,147.023468 322.535950,147.703873 
	C320.897034,148.207092 319.258087,148.710327 317.220032,149.272064 
z"/>
<path fill="#D2C5D7" opacity="1.000000" stroke="none" 
	d="
M343.759583,150.384735 
	C344.383087,150.049591 344.887360,150.050400 345.770508,150.064743 
	C344.388763,154.211594 342.628082,158.344910 340.674377,162.726776 
	C340.189056,162.957458 339.896820,162.939606 339.166199,162.874542 
	C340.365326,158.791779 342.002838,154.756241 343.759583,150.384735 
z"/>
<path fill="#685681" opacity="1.000000" stroke="none" 
	d="
M233.458069,156.302994 
	C234.147598,155.872818 235.003204,155.581726 235.499130,154.989456 
	C238.310822,151.631516 241.127487,149.660629 244.604340,154.247299 
	C244.899002,154.636032 245.839050,154.535538 247.134155,154.576660 
	C248.530182,154.486725 249.271301,154.482483 250.381073,154.646973 
	C254.876114,154.783478 259.002502,154.751266 263.438232,154.781464 
	C264.164825,154.897858 264.582092,154.951843 265.234100,155.255493 
	C269.861023,158.457809 274.253174,161.410431 278.724060,164.529449 
	C278.802795,164.695862 279.019562,164.993423 279.033447,165.321320 
	C279.670135,166.770721 280.292938,167.892242 280.978882,169.325256 
	C281.149231,170.046478 281.256409,170.456223 281.363617,170.865967 
	C282.149445,192.249710 271.561066,206.665024 252.916718,215.314850 
	C247.421555,217.864273 240.709351,218.732803 234.558990,218.717606 
	C224.035797,218.691589 217.759781,211.875443 217.132874,201.348007 
	C216.269775,186.854172 221.668198,174.339432 229.573868,162.647095 
	C230.689331,160.997345 231.808609,159.350174 233.095947,157.188782 
	C233.265747,156.675720 233.458069,156.302994 233.458069,156.302994 
M278.142792,184.137390 
	C283.099396,166.758270 270.908508,156.082413 255.422913,157.367615 
	C251.402283,157.701309 247.073105,157.095398 243.227951,155.857666 
	C240.324020,154.922928 238.333466,155.007355 236.702728,157.303909 
	C232.865082,162.708542 228.668762,167.957245 225.599457,173.786087 
	C220.720718,183.051056 218.208542,193.056473 219.739853,203.682663 
	C220.813095,211.130249 224.683411,215.478241 231.900177,216.111084 
	C236.783661,216.539322 242.033539,216.498917 246.687088,215.162399 
	C262.298859,210.678665 272.784973,200.448929 278.142792,184.137390 
z"/>
<path fill="#E2D5E2" opacity="1.000000" stroke="none" 
	d="
M233.439163,155.949280 
	C233.458069,156.302994 233.265747,156.675720 233.141937,156.844986 
	C229.692535,161.222061 225.772659,165.093628 223.162903,169.706436 
	C217.425980,179.846558 214.631409,190.840469 215.196854,202.670776 
	C215.643433,212.014725 224.016785,220.433517 233.840958,220.708755 
	C242.677383,220.956314 251.075333,219.363434 258.705902,214.634583 
	C259.407227,214.199921 260.165894,213.843597 260.931824,213.535095 
	C261.189789,213.431198 261.553009,213.588547 261.884521,213.628464 
	C261.978943,213.928360 262.244507,214.389603 262.141113,214.497665 
	C250.953537,226.185257 228.799408,227.193222 217.973618,216.702454 
	C210.500595,209.460693 210.731689,200.352859 212.396683,191.491562 
	C215.621582,174.328201 224.307617,159.869064 236.672699,147.614151 
	C238.519089,145.784195 240.567810,143.618683 242.459976,146.646530 
	C239.222321,149.851700 236.321289,152.723618 233.439163,155.949280 
z"/>
<path fill="#D9CCDB" opacity="1.000000" stroke="none" 
	d="
M281.622284,171.124878 
	C281.256409,170.456223 281.149231,170.046478 281.096924,169.077820 
	C280.441071,167.343750 279.730316,166.168579 279.019562,164.993423 
	C279.019562,164.993423 278.802795,164.695862 278.717255,164.176147 
	C275.600372,158.388931 271.341522,155.055862 264.999359,155.005829 
	C264.582092,154.951843 264.164825,154.897858 263.302612,154.547913 
	C262.253510,153.871231 261.649414,153.490509 261.041412,152.745026 
	C261.039276,151.893356 261.041016,151.406433 261.042725,150.919495 
	C280.677246,153.709549 290.920197,169.168961 281.880951,189.184860 
	C281.880951,182.404755 281.880951,176.894257 281.622284,171.124878 
z"/>
<path fill="#E8DCE4" opacity="1.000000" stroke="none" 
	d="
M260.617554,150.864197 
	C261.041016,151.406433 261.039276,151.893356 260.584442,152.753250 
	C256.758362,153.576889 253.385406,154.027557 250.012436,154.478241 
	C249.271301,154.482483 248.530182,154.486725 247.419754,154.458435 
	C246.179276,153.359314 245.308090,152.292709 244.436890,151.226120 
	C244.581940,150.746750 244.726974,150.267380 244.872009,149.788025 
	C249.978806,150.128311 255.085617,150.468597 260.617554,150.864197 
z"/>
<path fill="#E2D5E2" opacity="1.000000" stroke="none" 
	d="
M273.459045,203.467392 
	C273.504486,203.442337 273.413574,203.492447 273.459045,203.467392 
z"/>
<path fill="#3F2A66" opacity="1.000000" stroke="none" 
	d="
M419.291016,159.723511 
	C421.940308,167.269089 424.404602,174.488739 426.887451,181.702011 
	C427.996704,184.924622 427.029388,186.791397 423.531036,187.339355 
	C416.965973,188.367630 410.421265,189.524887 403.862915,190.596970 
	C400.522430,191.143005 398.971954,189.947906 400.131073,186.455139 
	C403.425964,176.526443 406.675415,166.581024 410.151093,156.715576 
	C410.750824,155.013168 412.370483,153.670059 413.518982,152.160965 
	C414.862152,153.533157 416.300842,154.827179 417.512482,156.307068 
	C418.231201,157.184891 418.591919,158.355820 419.291016,159.723511 
z"/>
<path fill="#E7DBE3" opacity="1.000000" stroke="none" 
	d="
M437.685730,186.108475 
	C439.076782,186.393631 440.119995,186.684937 441.314087,187.018387 
	C434.095917,192.844788 433.904785,193.481674 437.311707,200.903793 
	C437.652649,201.547089 437.732880,201.973236 437.835052,202.724518 
	C438.248444,206.950562 438.448242,210.882858 439.080872,214.744278 
	C439.833344,219.337341 440.976654,223.865692 441.884705,228.435196 
	C441.957855,228.803482 441.521301,229.273056 440.673706,231.066223 
	C439.536133,228.076187 438.483734,226.142761 438.071198,224.081284 
	C436.306641,215.263611 434.817749,206.390823 433.055969,197.572556 
	C431.845825,191.515305 430.300293,190.467331 424.032318,191.301697 
	C418.001984,192.104431 412.002045,193.135391 405.988739,194.066071 
	C405.916290,193.637894 405.843811,193.209717 405.771332,192.781540 
	C410.418762,191.953781 415.055542,191.059662 419.715851,190.312210 
	C429.129486,188.802414 429.134766,188.835266 429.930054,180.043350 
	C431.133545,181.703842 432.247467,183.240738 433.675568,184.892105 
	C433.989746,185.006592 434.000275,185.000549 434.041168,185.241821 
	C434.705048,185.729141 435.328064,185.975174 435.951050,186.221207 
	C436.413330,186.185684 436.875610,186.150162 437.685730,186.108475 
z"/>
<path fill="#E7DBE3" opacity="1.000000" stroke="none" 
	d="
M386.438354,199.633301 
	C386.438354,199.633301 386.144104,199.721832 386.144104,199.721832 
	C386.144104,199.721832 385.836823,199.720779 385.262482,199.571579 
	C381.541687,199.804916 378.395203,200.187469 375.248749,200.570023 
	C375.165253,200.040726 375.081757,199.511444 374.998260,198.982162 
	C377.951935,198.273819 380.983704,197.789429 383.837128,196.793839 
	C386.659698,195.809006 389.302216,194.308105 392.023712,193.033569 
	C392.023712,193.033585 392.003357,193.013779 392.019226,193.019104 
	C393.313019,191.847504 394.590942,190.670593 396.115112,189.266876 
	C397.276062,190.717346 398.622894,192.400040 400.523529,194.774628 
	C393.970123,196.040421 393.068237,201.448639 391.505737,206.277145 
	C388.041412,216.983047 384.740143,227.741714 381.340271,238.870270 
	C381.308228,239.261658 381.291473,239.331299 380.930908,239.117844 
	C376.763855,234.537308 381.138123,230.846405 381.653625,226.855713 
	C382.084076,223.523468 383.137909,220.271744 383.915649,216.984360 
	C384.018951,216.575287 384.122223,216.166214 384.629028,215.302002 
	C386.613953,210.911728 388.438751,207.051300 389.678864,203.011398 
	C390.344635,200.842361 389.331329,199.025620 386.438354,199.633301 
z"/>
<path fill="#E7DBE3" opacity="1.000000" stroke="none" 
	d="
M398.791870,182.208038 
	C398.440002,182.566788 398.105469,182.734039 397.770996,182.901276 
	C397.797424,182.485031 397.823883,182.068802 397.850342,181.652557 
	C398.169952,181.773895 398.489624,181.895218 398.791870,182.208038 
z"/>
<path fill="#AC9DB7" opacity="1.000000" stroke="none" 
	d="
M175.967224,205.042725 
	C177.319580,207.726562 178.671951,210.410400 180.024307,213.094238 
	C180.648636,213.095367 181.272980,213.096481 181.897324,213.097610 
	C183.151886,207.952179 184.406464,202.806732 186.045441,197.662994 
	C186.030548,201.724274 185.631226,205.783859 185.231903,209.843445 
	C186.990997,207.006943 187.624680,203.971741 188.416031,200.978210 
	C189.132950,198.266190 190.021835,195.599594 190.834915,192.912979 
	C188.714966,202.220627 186.761826,211.572433 184.320511,220.795013 
	C183.883667,222.445236 181.427811,223.561005 179.904205,224.923553 
	C178.516830,223.278107 177.129471,221.632629 176.098175,219.574387 
	C177.505951,218.851425 178.557678,218.541229 179.041122,218.398651 
	C177.968704,213.739029 176.967957,209.390869 175.967224,205.042725 
z"/>
<path fill="#E3D5E1" opacity="1.000000" stroke="none" 
	d="
M127.170143,173.027985 
	C127.555374,173.635208 127.670975,174.041611 127.756546,175.054901 
	C128.116028,176.799301 128.505539,177.936829 128.895050,179.074341 
	C128.895050,179.074341 128.935349,179.081757 128.920807,179.097458 
	C129.864334,184.741226 130.837769,190.366745 131.767319,195.999527 
	C131.949097,197.100967 131.960678,198.230515 131.641724,199.682617 
	C130.765823,200.026886 130.298996,200.035645 129.632614,199.974167 
	C129.181656,199.760117 128.911118,199.687759 128.621475,199.686859 
	C128.510742,199.310379 128.400024,198.933899 128.364166,198.088074 
	C128.171570,196.988281 127.904106,196.357864 127.636627,195.727432 
	C127.493774,195.044662 127.350922,194.361908 127.285484,193.148407 
	C127.091553,191.991165 126.820198,191.364670 126.548843,190.738159 
	C126.438225,190.352448 126.327599,189.966751 126.302177,189.104095 
	C126.105965,187.999405 125.824547,187.371628 125.543121,186.743866 
	C125.438965,186.355438 125.334808,185.966995 125.300980,185.008408 
	C124.724556,182.551422 124.077812,180.664597 123.431061,178.777771 
	C123.322769,178.385574 123.214485,177.993362 123.201904,177.023163 
	C121.995689,172.893555 120.693756,169.341980 119.391823,165.790390 
	C118.572823,164.491211 117.753822,163.192032 116.832901,161.164642 
	C116.696686,159.541183 116.662392,158.645950 116.628098,157.750717 
	C116.628105,157.750717 116.685440,157.665665 116.730598,157.641022 
	C121.494255,157.885986 123.530792,160.634064 124.282227,165.087631 
	C124.729622,167.739258 126.000076,170.252014 127.170143,173.027985 
z"/>
<path fill="#D9CCDB" opacity="1.000000" stroke="none" 
	d="
M137.033554,215.943390 
	C138.515762,214.830139 140.796280,214.012970 141.338516,212.551056 
	C143.409225,206.968307 144.920181,201.177933 146.570007,195.062729 
	C146.751755,193.417206 147.003677,192.174072 147.609726,190.385376 
	C148.290878,188.225250 148.617920,186.610641 148.944962,184.996048 
	C149.388351,183.302689 149.831757,181.609329 150.641785,179.370438 
	C151.142960,178.065399 151.277512,177.305893 151.412048,176.546387 
	C151.651047,175.641266 151.890045,174.736130 152.503891,173.349091 
	C153.536270,171.911713 154.193817,170.956207 155.044342,170.246567 
	C155.505432,171.054031 155.773544,171.615616 155.989532,172.538055 
	C154.069580,179.100067 152.055923,185.262100 150.379013,191.514481 
	C148.977356,196.740585 147.969711,202.072372 146.787598,207.357361 
	C146.787598,207.357361 146.695236,207.532028 146.528702,207.515976 
	C146.362167,207.499924 146.516342,207.550629 146.516342,207.550629 
	C146.531540,207.790482 146.546738,208.030319 146.209915,208.842163 
	C144.562210,211.943008 143.266525,214.471832 141.646774,217.077377 
	C139.892990,216.750519 138.463272,216.346954 137.033554,215.943390 
z"/>
<path fill="#E5D8E4" opacity="1.000000" stroke="none" 
	d="
M156.041656,172.177216 
	C155.773544,171.615616 155.505432,171.054031 155.046021,169.857162 
	C154.768097,168.712463 154.681458,168.203033 154.594833,167.693604 
	C155.146027,166.778229 155.697235,165.862854 156.493210,164.732513 
	C159.854813,164.708664 161.847366,166.093079 162.814636,169.273834 
	C165.147980,176.946747 167.725113,184.545547 169.957428,192.718231 
	C169.367569,193.562927 169.024200,193.863602 168.509003,193.855438 
	C167.062958,190.610016 165.788757,187.673462 164.514526,184.736908 
	C164.218445,183.849518 163.922348,182.962128 163.585709,181.359467 
	C163.049545,178.917633 162.790756,177.072998 162.002518,175.492371 
	C160.834686,173.150482 159.523026,170.571869 156.041656,172.177216 
z"/>
<path fill="#EADDE5" opacity="1.000000" stroke="none" 
	d="
M136.845612,215.634781 
	C138.463272,216.346954 139.892990,216.750519 141.642273,217.459061 
	C141.500565,221.541214 140.149368,224.735641 136.407089,226.791046 
	C135.374222,225.301910 134.575150,224.149841 133.776077,222.997772 
	C133.690918,222.636475 133.605759,222.275162 133.590881,221.245026 
	C133.023788,218.383545 132.386414,216.190933 131.749023,213.998306 
	C131.622986,213.355408 131.496948,212.712524 131.412506,211.423828 
	C131.207672,210.184769 130.961243,209.591507 130.714813,208.998245 
	C130.643143,208.636612 130.571457,208.274994 130.566620,207.282028 
	C130.300873,205.770569 129.968292,204.890457 129.635712,204.010330 
	C129.547226,203.654709 129.458740,203.299103 129.471268,202.297913 
	C129.658905,201.116364 129.745529,200.580383 129.832153,200.044403 
	C130.298996,200.035645 130.765823,200.026886 131.582642,200.014771 
	C133.507645,205.116318 135.082657,210.221252 136.845612,215.634781 
z"/>
<path fill="#AC9DB7" opacity="1.000000" stroke="none" 
	d="
M155.989532,172.538055 
	C159.523026,170.571869 160.834686,173.150482 162.002518,175.492371 
	C162.790756,177.072998 163.049545,178.917633 163.479706,181.024994 
	C162.032700,179.258560 160.651184,177.111313 159.269653,174.964050 
	C158.735962,174.912018 158.202286,174.859970 157.668594,174.807938 
	C154.205887,185.512939 150.743195,196.217957 147.034042,207.140167 
	C147.969711,202.072372 148.977356,196.740585 150.379013,191.514481 
	C152.055923,185.262100 154.069580,179.100067 155.989532,172.538055 
z"/>
<path fill="#D6C8DB" opacity="1.000000" stroke="none" 
	d="
M190.896881,192.598679 
	C190.021835,195.599594 189.132950,198.266190 188.416031,200.978210 
	C187.624680,203.971741 186.990997,207.006943 185.231903,209.843445 
	C185.631226,205.783859 186.030548,201.724274 186.257233,197.342468 
	C186.247452,195.270309 186.410339,193.520386 186.846436,191.165497 
	C187.090546,189.375656 187.061417,188.190765 187.032288,187.005875 
	C187.174957,184.618011 187.317657,182.230133 187.508331,179.457169 
	C188.073837,178.204910 188.591339,177.337753 189.722076,176.257446 
	C190.639053,176.087784 190.942764,176.131302 191.246490,176.174805 
	C191.366043,177.901230 191.485580,179.627640 191.782928,181.673309 
	C191.904694,182.706741 191.848679,183.420914 191.463989,184.590454 
	C191.092590,187.032013 191.049835,189.018219 191.007095,191.004425 
	C190.991013,191.431076 190.974930,191.857727 190.896881,192.598679 
z"/>
<path fill="#DBCEDA" opacity="1.000000" stroke="none" 
	d="
M168.680847,194.164291 
	C169.024200,193.863602 169.367569,193.562927 169.957352,193.022308 
	C170.734802,192.858856 171.265839,192.935333 172.065826,193.019211 
	C172.470779,193.467651 172.606781,193.908707 172.815125,194.688721 
	C173.541672,197.575409 174.195862,200.123123 175.110550,202.826279 
	C175.521698,203.434708 175.672363,203.887695 175.895111,204.691711 
	C176.967957,209.390869 177.968704,213.739029 179.041122,218.398651 
	C178.557678,218.541229 177.505951,218.851425 176.110565,219.205109 
	C175.368195,218.203995 174.969498,217.159393 174.548096,215.399750 
	C173.588837,212.120605 172.652252,209.556503 171.715668,206.992416 
	C171.599335,206.668686 171.483002,206.344971 171.397232,205.373596 
	C170.512146,201.205414 169.596497,197.684845 168.680847,194.164291 
z"/>
<path fill="#AC9DB7" opacity="1.000000" stroke="none" 
	d="
M133.668594,223.289703 
	C134.575150,224.149841 135.374222,225.301910 136.407089,226.791046 
	C140.149368,224.735641 141.500565,221.541214 141.966339,217.382355 
	C143.266525,214.471832 144.562210,211.943008 146.149124,209.197510 
	C144.947922,214.188477 143.742859,219.506470 141.808640,224.544495 
	C141.122971,226.330429 138.661591,227.434631 137.010895,228.850067 
	C135.860962,227.093933 134.711044,225.337769 133.668594,223.289703 
z"/>
<path fill="#AC9DB7" opacity="1.000000" stroke="none" 
	d="
M168.509003,193.855438 
	C169.596497,197.684845 170.512146,201.205414 171.343857,205.121002 
	C168.975876,198.845184 166.691833,192.174362 164.461166,185.120209 
	C165.788757,187.673462 167.062958,190.610016 168.509003,193.855438 
z"/>
<path fill="#AC9DB7" opacity="1.000000" stroke="none" 
	d="
M119.347137,166.171295 
	C120.693756,169.341980 121.995689,172.893555 123.147820,176.722641 
	C121.766159,173.517502 120.534302,170.034851 119.347137,166.171295 
z"/>
<path fill="#AC9DB7" opacity="1.000000" stroke="none" 
	d="
M171.619019,207.289047 
	C172.652252,209.556503 173.588837,212.120605 174.468063,215.074463 
	C173.447937,212.838043 172.485153,210.211868 171.619019,207.289047 
z"/>
<path fill="#AC9DB7" opacity="1.000000" stroke="none" 
	d="
M131.633209,214.294952 
	C132.386414,216.190933 133.023788,218.383545 133.547607,220.969727 
	C132.795151,219.106033 132.156281,216.848816 131.633209,214.294952 
z"/>
<path fill="#AC9DB7" opacity="1.000000" stroke="none" 
	d="
M123.355484,179.147888 
	C124.077812,180.664597 124.724556,182.551422 125.242180,184.712463 
	C124.501999,183.163788 123.890953,181.340912 123.355484,179.147888 
z"/>
<path fill="#AC9DB7" opacity="1.000000" stroke="none" 
	d="
M191.203613,190.668762 
	C191.049835,189.018219 191.092590,187.032013 191.401550,184.943390 
	C191.578568,186.671692 191.489365,188.502396 191.203613,190.668762 
z"/>
<path fill="#AC9DB7" opacity="1.000000" stroke="none" 
	d="
M129.499252,204.246918 
	C129.968292,204.890457 130.300873,205.770569 130.532227,207.007385 
	C130.074921,206.403885 129.718857,205.443710 129.499252,204.246918 
z"/>
<path fill="#AC9DB7" opacity="1.000000" stroke="none" 
	d="
M116.368233,157.868805 
	C116.662392,158.645950 116.696686,159.541183 116.667374,160.881134 
	C116.438629,160.212860 116.273499,159.099869 116.368233,157.868805 
z"/>
<path fill="#AC9DB7" opacity="1.000000" stroke="none" 
	d="
M125.467430,187.044540 
	C125.824547,187.371628 126.105965,187.999405 126.249542,188.807617 
	C125.871712,188.440445 125.631721,187.892822 125.467430,187.044540 
z"/>
<path fill="#AC9DB7" opacity="1.000000" stroke="none" 
	d="
M130.592468,209.198853 
	C130.961243,209.591507 131.207672,210.184769 131.360413,211.100342 
	C131.001190,210.748245 130.735657,210.073837 130.592468,209.198853 
z"/>
<path fill="#AC9DB7" opacity="1.000000" stroke="none" 
	d="
M129.632599,199.974182 
	C129.745529,200.580383 129.658905,201.116364 129.415649,202.028748 
	C128.978683,201.689056 128.698380,200.972977 128.519775,199.971863 
	C128.911118,199.687759 129.181656,199.760117 129.632599,199.974182 
z"/>
<path fill="#AC9DB7" opacity="1.000000" stroke="none" 
	d="
M126.467606,191.039246 
	C126.820198,191.364670 127.091553,191.991165 127.231613,192.803375 
	C126.862343,192.439499 126.624352,191.889908 126.467606,191.039246 
z"/>
<path fill="#AC9DB7" opacity="1.000000" stroke="none" 
	d="
M127.552010,196.027206 
	C127.904106,196.357864 128.171570,196.988281 128.306152,197.799438 
	C127.937981,197.429108 127.702682,196.878052 127.552010,196.027206 
z"/>
<path fill="#AC9DB7" opacity="1.000000" stroke="none" 
	d="
M146.482147,207.555527 
	C146.516342,207.550629 146.362167,207.499924 146.434464,207.545654 
	C146.506760,207.591400 146.447952,207.560425 146.482147,207.555527 
z"/>
<path fill="#C4B6C9" opacity="1.000000" stroke="none" 
	d="
M391.636169,193.080231 
	C389.302216,194.308105 386.659698,195.809006 383.837128,196.793839 
	C380.983704,197.789429 377.951935,198.273819 374.998260,198.982162 
	C375.081757,199.511444 375.165253,200.040726 375.248749,200.570023 
	C378.395203,200.187469 381.541687,199.804916 385.115662,199.526382 
	C382.424438,200.627747 379.355042,201.890747 376.161255,202.484894 
	C374.970764,202.706360 373.489532,201.364807 372.140869,200.735977 
	C373.048431,199.538071 373.738068,197.616180 374.900879,197.266083 
	C380.278137,195.647217 385.786926,194.465347 391.636169,193.080231 
z"/>
<path fill="#C4B6C9" opacity="1.000000" stroke="none" 
	d="
M383.665100,217.228867 
	C383.137909,220.271744 382.084076,223.523468 381.653625,226.855713 
	C381.138123,230.846405 376.763855,234.537308 380.895386,239.122330 
	C380.117279,239.500305 379.014130,239.660324 377.911011,239.820374 
	C377.690033,238.262878 376.923157,236.537140 377.342346,235.176956 
	C379.178925,229.217987 381.359039,223.364883 383.665100,217.228867 
z"/>
<path fill="#C4B6C9" opacity="1.000000" stroke="none" 
	d="
M386.631470,199.932434 
	C389.331329,199.025620 390.344635,200.842361 389.678864,203.011398 
	C388.438751,207.051300 386.613953,210.911728 384.745605,215.007675 
	C385.411621,212.038177 386.593903,208.953293 387.226288,205.759521 
	C387.572296,204.011902 386.988861,202.080246 386.631470,199.932434 
z"/>
<path fill="#E8DCE4" opacity="1.000000" stroke="none" 
	d="
M85.281067,170.884903 
	C80.514992,175.580780 75.947159,180.098648 71.375732,184.971344 
	C69.745178,187.078430 68.118210,188.830734 66.232910,190.782928 
	C64.809875,192.337280 62.552078,193.882324 62.746914,194.999664 
	C63.012547,196.523041 64.911438,198.350998 66.520477,198.954910 
	C76.801178,202.813644 87.197792,206.363052 97.549133,210.034378 
	C101.837212,211.555222 106.107643,213.125809 110.386101,214.673782 
	C110.223656,215.370255 110.061211,216.066727 109.898773,216.763184 
	C107.571434,216.358276 105.110504,216.306686 102.940323,215.486145 
	C94.378784,212.249039 85.913773,208.757263 77.401817,205.388077 
	C73.996819,204.040314 70.636681,202.500412 67.123856,201.523621 
	C62.624313,200.272476 60.496136,201.967499 60.275002,206.670776 
	C60.087288,210.663345 60.260292,214.673203 60.060772,218.664749 
	C59.969608,220.488480 59.366219,222.286606 58.995148,224.096329 
	C58.438667,224.062485 57.882183,224.028656 57.325699,223.994812 
	C57.325699,221.705002 57.420433,219.410477 57.306858,217.126312 
	C57.032452,211.607498 56.660789,206.093506 55.985466,200.395203 
	C55.642605,200.212814 55.413090,199.887421 55.509354,199.305939 
	C60.654976,190.335770 58.803253,181.163940 58.986794,172.148712 
	C59.847038,172.077377 60.338234,172.038498 60.829430,171.999634 
	C60.913891,174.932907 60.766644,177.898087 61.164997,180.788086 
	C61.426762,182.687134 62.475956,184.477646 63.172516,186.316772 
	C65.014366,185.028595 66.856224,183.740433 68.733765,182.102203 
	C70.052711,180.332718 71.335968,178.913315 73.168365,177.189346 
	C75.382675,174.825226 77.047859,172.765671 78.713043,170.706116 
	C79.960754,169.261688 81.208473,167.817261 82.993103,166.064636 
	C83.923294,165.073044 84.316574,164.389618 84.709854,163.706192 
	C85.327072,162.938705 85.944290,162.171204 87.069809,161.102081 
	C87.982773,160.124222 88.387436,159.447998 88.792091,158.771790 
	C89.400215,157.998306 90.008339,157.224808 91.122383,156.126648 
	C92.268539,154.721390 92.908775,153.640808 93.549011,152.560226 
	C93.549019,152.560226 93.733543,152.249878 94.158051,152.007416 
	C95.065376,150.856293 95.548180,149.947632 96.030991,149.038956 
	C96.943657,147.569061 97.856331,146.099167 99.281792,144.328781 
	C100.484222,143.964890 101.173874,143.901489 101.928040,143.904907 
	C101.992554,143.971725 102.124786,144.102173 102.053177,144.451416 
	C99.767380,149.323502 97.553192,153.846329 95.338989,158.369156 
	C95.338989,158.369156 95.163628,158.683334 94.715820,158.895813 
	C91.666000,162.555984 89.063988,166.003677 86.461975,169.451355 
	C86.134422,169.869873 85.806870,170.288391 85.281067,170.884903 
z"/>
<path fill="#EADDE5" opacity="1.000000" stroke="none" 
	d="
M60.844883,171.626770 
	C60.338234,172.038498 59.847038,172.077377 58.782127,172.067474 
	C57.936123,171.883347 57.647926,171.817795 57.343826,171.822052 
	C57.273792,171.112793 57.203762,170.403534 57.296555,169.013184 
	C56.809212,165.153488 56.159050,161.974899 55.508884,158.796295 
	C55.374496,158.096893 55.240108,157.397476 55.079906,156.342499 
	C54.852940,152.547165 54.651794,149.107407 54.450645,145.667648 
	C54.921593,145.563354 55.392544,145.459061 55.863495,145.354767 
	C59.113239,148.671432 58.969700,153.143539 59.295494,157.551361 
	C59.634090,162.132401 60.324036,166.687469 60.844883,171.626770 
z"/>
<path fill="#BBADC3" opacity="1.000000" stroke="none" 
	d="
M57.226208,172.290497 
	C57.647926,171.817795 57.936123,171.883347 58.413082,172.099945 
	C58.803253,181.163940 60.654976,190.335770 55.439178,199.119629 
	C54.983059,198.628906 54.167240,197.421371 54.482670,196.905426 
	C59.168625,189.240372 56.488644,180.823288 57.226208,172.290497 
z"/>
<path fill="#BBADC3" opacity="1.000000" stroke="none" 
	d="
M55.418213,159.201050 
	C56.159050,161.974899 56.809212,165.153488 57.285995,168.656479 
	C56.517590,165.855835 55.922569,162.730820 55.418213,159.201050 
z"/>
<path fill="#BBADC3" opacity="1.000000" stroke="none" 
	d="
M95.616730,158.316315 
	C97.553192,153.846329 99.767380,149.323502 102.101700,144.389435 
	C102.221825,143.978210 102.141640,143.718445 102.141640,143.718445 
	C102.141640,143.718445 101.863525,143.838104 101.863525,143.838104 
	C101.173874,143.901489 100.484222,143.964890 99.448273,144.046631 
	C100.542343,141.066803 101.982727,138.068649 103.695549,134.503387 
	C106.855804,139.674896 106.682556,140.217407 97.464149,157.060211 
	C96.856865,157.674576 96.375656,157.969025 95.616730,158.316315 
z"/>
<path fill="#BBADC3" opacity="1.000000" stroke="none" 
	d="
M78.396210,170.808426 
	C77.047859,172.765671 75.382675,174.825226 73.388657,176.958374 
	C74.733002,174.991562 76.406197,172.951157 78.396210,170.808426 
z"/>
<path fill="#BBADC3" opacity="1.000000" stroke="none" 
	d="
M93.256470,152.691132 
	C92.908775,153.640808 92.268539,154.721390 91.302795,155.893295 
	C91.639503,154.930420 92.301712,153.876221 93.256470,152.691132 
z"/>
<path fill="#BBADC3" opacity="1.000000" stroke="none" 
	d="
M95.735535,149.156952 
	C95.548180,149.947632 95.065376,150.856293 94.279144,151.873535 
	C94.463844,151.079712 94.951965,150.177322 95.735535,149.156952 
z"/>
<path fill="#BBADC3" opacity="1.000000" stroke="none" 
	d="
M84.427902,163.820679 
	C84.316574,164.389618 83.923294,165.073044 83.233566,165.852509 
	C83.340073,165.277420 83.743019,164.606293 84.427902,163.820679 
z"/>
<path fill="#BBADC3" opacity="1.000000" stroke="none" 
	d="
M88.505722,158.879181 
	C88.387436,159.447998 87.982773,160.124222 87.283096,160.896103 
	C87.398499,160.323364 87.808922,159.654953 88.505722,158.879181 
z"/>
<path fill="#AC9DB7" opacity="1.000000" stroke="none" 
	d="
M148.697906,185.240936 
	C148.617920,186.610641 148.290878,188.225250 147.731186,190.022247 
	C147.815979,188.631729 148.133423,187.058777 148.697906,185.240936 
z"/>
<path fill="#AC9DB7" opacity="1.000000" stroke="none" 
	d="
M154.313232,167.876526 
	C154.681458,168.203033 154.768097,168.712463 154.853058,169.611298 
	C154.193817,170.956207 153.536270,171.911713 152.633652,173.021973 
	C152.936249,171.470963 153.483948,169.765213 154.313232,167.876526 
z"/>
<path fill="#AC9DB7" opacity="1.000000" stroke="none" 
	d="
M151.187210,176.745178 
	C151.277512,177.305893 151.142960,178.065399 150.781265,179.020889 
	C150.690201,178.459244 150.826279,177.701599 151.187210,176.745178 
z"/>
<path fill="#E5D8E4" opacity="1.000000" stroke="none" 
	d="
M191.285675,175.825684 
	C190.942764,176.131302 190.639053,176.087784 189.877411,175.989655 
	C189.419495,168.190750 189.419495,160.446457 189.419495,152.702179 
	C189.894012,152.694794 190.368546,152.687408 190.843063,152.680023 
	C193.188004,156.952896 192.149170,161.593445 191.801147,166.176743 
	C191.566208,169.270889 191.478439,172.376236 191.285675,175.825684 
z"/>
<path fill="#AC9DB7" opacity="1.000000" stroke="none" 
	d="
M186.853638,187.251114 
	C187.061417,188.190765 187.090546,189.375656 186.908188,190.796402 
	C186.689484,189.853622 186.682251,188.674988 186.853638,187.251114 
z"/>
<path fill="#C4B6C9" opacity="1.000000" stroke="none" 
	d="
M435.765381,185.988403 
	C435.328064,185.975174 434.705048,185.729141 434.037628,185.246597 
	C434.522034,185.258575 435.050842,185.507080 435.765381,185.988403 
z"/>
<path fill="#BBADC3" opacity="1.000000" stroke="none" 
	d="
M86.773865,169.332916 
	C89.063988,166.003677 91.666000,162.555984 94.597717,159.031540 
	C92.313538,162.374664 89.699654,165.794571 86.773865,169.332916 
z"/>
<path fill="#AC9DB7" opacity="1.000000" stroke="none" 
	d="
M128.977417,178.720352 
	C128.505539,177.936829 128.116028,176.799301 127.823257,175.364746 
	C128.299927,176.167267 128.679855,177.266815 128.977417,178.720352 
z"/>
<path fill="#2D185B" opacity="1.000000" stroke="none" 
	d="
M278.053101,184.540924 
	C272.784973,200.448929 262.298859,210.678665 246.687088,215.162399 
	C242.033539,216.498917 236.783661,216.539322 231.900177,216.111084 
	C224.683411,215.478241 220.813095,211.130249 219.739853,203.682663 
	C218.208542,193.056473 220.720718,183.051056 225.599457,173.786087 
	C228.668762,167.957245 232.865082,162.708542 236.702728,157.303909 
	C238.333466,155.007355 240.324020,154.922928 243.227951,155.857666 
	C247.073105,157.095398 251.402283,157.701309 255.422913,157.367615 
	C270.908508,156.082413 283.099396,166.758270 278.053101,184.540924 
z"/>
<path fill="#AFA0BA" opacity="1.000000" stroke="none" 
	d="
M265.234100,155.255493 
	C271.341522,155.055862 275.600372,158.388931 278.638519,164.009735 
	C274.253174,161.410431 269.861023,158.457809 265.234100,155.255493 
z"/>
<path fill="#AFA0BA" opacity="1.000000" stroke="none" 
	d="
M250.381073,154.646957 
	C253.385406,154.027557 256.758362,153.576889 260.588318,153.117981 
	C261.649414,153.490509 262.253510,153.871231 262.993286,154.485504 
	C259.002502,154.751266 254.876114,154.783478 250.381073,154.646957 
z"/>
<path fill="#AFA0BA" opacity="1.000000" stroke="none" 
	d="
M279.033447,165.321320 
	C279.730316,166.168579 280.441071,167.343750 281.033783,168.766342 
	C280.292938,167.892242 279.670135,166.770721 279.033447,165.321320 
z"/>
<path fill="#E8DCE4" opacity="1.000000" stroke="none" 
	d="
M101.928040,143.904907 
	C101.863525,143.838104 102.141640,143.718445 102.141640,143.718445 
	C102.141640,143.718445 102.221825,143.978210 102.173309,144.040192 
	C102.124786,144.102173 101.992554,143.971725 101.928040,143.904907 
z"/>
</svg>